  0
SECTION
  2
HEADER
  9
$ACADVER
  1
AC1014
  9
$HANDSEED
  5
FFFF
  9
$MEASUREMENT
 70
     1
  0
ENDSEC
  0
SECTION
  2
TABLES
  0
TABLE
  2
VPORT
  5
8
330
0
100
AcDbSymbolTable
 70
     4
  0
VPORT
  5
2E
330
8
100
AcDbSymbolTableRecord
100
AcDbViewportTableRecord
  2
*ACTIVE
 70
     0
 10
0.0
 20
0.0
 11
1.0
 21
1.0
 12
210.0
 22
148.5
 13
0.0
 23
0.0
 14
10.0
 24
10.0
 15
10.0
 25
10.0
 16
0.0
 26
0.0
 36
1.0
 17
0.0
 27
0.0
 37
0.0
 40
341.0
 41
1.24
 42
50.0
 43
0.0
 44
0.0
 50
0.0
 51
0.0
 71
     0
 72
   100
 73
     1
 74
     3
 75
     0
 76
     0
 77
     0
 78
     0
  0
ENDTAB
  0
TABLE
  2
LTYPE
  5
5
330
0
100
AcDbSymbolTable
 70
     1
  0
LTYPE
  5
14
330
5
100
AcDbSymbolTableRecord
100
AcDbLinetypeTableRecord
  2
BYBLOCK
 70
     0
  3

 72
    65
 73
     0
 40
0.0
  0
LTYPE
  5
15
330
5
100
AcDbSymbolTableRecord
100
AcDbLinetypeTableRecord
  2
BYLAYER
 70
     0
  3

 72
    65
 73
     0
 40
0.0
  0
LTYPE
  5
16
330
5
100
AcDbSymbolTableRecord
100
AcDbLinetypeTableRecord
  2
CONTINUOUS
 70
     0
  3
Solid line
 72
    65
 73
     0
 40
0.0
  0
ENDTAB
  0
TABLE
  2
LAYER
  5
2
100
AcDbSymbolTable
 70
2
  0
LAYER
  5
50
100
AcDbSymbolTableRecord
100
AcDbLayerTableRecord
  2
0
 70
0
  6
CONTINUOUS
  0
LAYER
  5
51
100
AcDbSymbolTableRecord
100
AcDbLayerTableRecord
  2
Capa_1
 70
0
  6
CONTINUOUS
  0
ENDTAB
  0
TABLE
  2
STYLE
  5
3
330
0
100
AcDbSymbolTable
 70
     1
  0
STYLE
  5
11
330
3
100
AcDbSymbolTableRecord
100
AcDbTextStyleTableRecord
  2
STANDARD
 70
     0
 40
0.0
 41
1.0
 50
0.0
 71
     0
 42
2.5
  3
txt
  4

  0
ENDTAB
  0
TABLE
  2
VIEW
  5
6
330
0
100
AcDbSymbolTable
 70
     0
  0
ENDTAB
  0
TABLE
  2
UCS
  5
7
330
0
100
AcDbSymbolTable
 70
     0
  0
ENDTAB
  0
TABLE
  2
APPID
  5
9
330
0
100
AcDbSymbolTable
 70
     2
  0
APPID
  5
12
330
9
100
AcDbSymbolTableRecord
100
AcDbRegAppTableRecord
  2
ACAD
 70
     0
  0
ENDTAB
  0
TABLE
  2
DIMSTYLE
  5
A
330
0
100
AcDbSymbolTable
 70
     1
  0
DIMSTYLE
105
27
330
A
100
AcDbSymbolTableRecord
100
AcDbDimStyleTableRecord
  2
ISO-25
 70
     0
  3

  4

  5

  6

  7

 40
1.0
 41
2.5
 42
0.625
 43
3.75
 44
1.25
 45
0.0
 46
0.0
 47
0.0
 48
0.0
140
2.5
141
2.5
142
0.0
143
0.03937007874016
144
1.0
145
0.0
146
1.0
147
0.625
 71
     0
 72
     0
 73
     0
 74
     0
 75
     0
 76
     0
 77
     1
 78
     8
170
     0
171
     3
172
     1
173
     0
174
     0
175
     0
176
     0
177
     0
178
     0
270
     2
271
     2
272
     2
273
     2
274
     3
340
11
275
     0
280
     0
281
     0
282
     0
283
     0
284
     8
285
     0
286
     0
287
     3
288
     0
  0
ENDTAB
  0
TABLE
  2
BLOCK_RECORD
  5
1
330
0
100
AcDbSymbolTable
 70
     1
  0
BLOCK_RECORD
  5
1F
330
1
100
AcDbSymbolTableRecord
100
AcDbBlockTableRecord
  2
*MODEL_SPACE
  0
BLOCK_RECORD
  5
1B
330
1
100
AcDbSymbolTableRecord
100
AcDbBlockTableRecord
  2
*PAPER_SPACE
  0
ENDTAB
  0
ENDSEC
  0
SECTION
  2
BLOCKS
  0
BLOCK
  5
20
330
1F
100
AcDbEntity
  8
0
100
AcDbBlockBegin
  2
*MODEL_SPACE
 70
     0
 10
0.0
 20
0.0
 30
0.0
  3
*MODEL_SPACE
  1

  0
ENDBLK
  5
21
330
1F
100
AcDbEntity
  8
0
100
AcDbBlockEnd
  0
BLOCK
  5
1C
330
1B
100
AcDbEntity
 67
     1
  8
0
100
AcDbBlockBegin
  2
*PAPER_SPACE
  1

  0
ENDBLK
  5
1D
330
1B
100
AcDbEntity
 67
     1
  8
0
100
AcDbBlockEnd
  0
ENDSEC
  0
SECTION
  2
ENTITIES
  0
LWPOLYLINE
  5
100
100
AcDbEntity
  8
Capa_1
 62
7
100
AcDbPolyline
 90
96
 70
1
 10
-18.441599
 20
31.537820
 30
0.0
 10
-17.030082
 20
31.545820
 30
0.0
 10
-15.618565
 20
31.553820
 30
0.0
 10
-14.207047
 20
31.561820
 30
0.0
 10
-12.795530
 20
31.569820
 30
0.0
 10
-11.384013
 20
31.577820
 30
0.0
 10
-9.972496
 20
31.585820
 30
0.0
 10
-8.560979
 20
31.593820
 30
0.0
 10
-7.149461
 20
31.601820
 30
0.0
 10
-5.737944
 20
31.609820
 30
0.0
 10
-4.326427
 20
31.617820
 30
0.0
 10
-2.914910
 20
31.625820
 30
0.0
 10
-1.503392
 20
31.633820
 30
0.0
 10
-0.091875
 20
31.641820
 30
0.0
 10
1.319642
 20
31.649820
 30
0.0
 10
2.731159
 20
31.657820
 30
0.0
 10
4.142677
 20
31.665820
 30
0.0
 10
5.554194
 20
31.673820
 30
0.0
 10
6.965711
 20
31.681820
 30
0.0
 10
8.377228
 20
31.689820
 30
0.0
 10
9.788745
 20
31.697820
 30
0.0
 10
11.200263
 20
31.705820
 30
0.0
 10
12.611780
 20
31.713820
 30
0.0
 10
14.023297
 20
31.721820
 30
0.0
 10
15.434814
 20
31.729820
 30
0.0
 10
16.846331
 20
31.737820
 30
0.0
 10
18.257849
 20
31.745820
 30
0.0
 10
19.669366
 20
31.753820
 30
0.0
 10
21.080883
 20
31.761820
 30
0.0
 10
22.492400
 20
31.769820
 30
0.0
 10
23.903918
 20
31.777820
 30
0.0
 10
25.315435
 20
31.785820
 30
0.0
 10
26.726952
 20
31.793820
 30
0.0
 10
26.700972
 20
31.732620
 30
0.0
 10
26.623662
 20
31.554700
 30
0.0
 10
26.495957
 20
31.268450
 30
0.0
 10
26.318793
 20
30.882260
 30
0.0
 10
26.093106
 20
30.404550
 30
0.0
 10
25.819831
 20
29.843710
 30
0.0
 10
25.499905
 20
29.208150
 30
0.0
 10
25.134265
 20
28.506280
 30
0.0
 10
24.723845
 20
27.746500
 30
0.0
 10
24.269582
 20
26.937210
 30
0.0
 10
23.772412
 20
26.086830
 30
0.0
 10
23.233271
 20
25.203750
 30
0.0
 10
22.653096
 20
24.296380
 30
0.0
 10
22.032821
 20
23.373120
 30
0.0
 10
21.373385
 20
22.442380
 30
0.0
 10
20.675721
 20
21.512570
 30
0.0
 10
19.940767
 20
20.592080
 30
0.0
 10
19.169459
 20
19.689330
 30
0.0
 10
18.362732
 20
18.812720
 30
0.0
 10
17.521522
 20
17.970650
 30
0.0
 10
16.646767
 20
17.171520
 30
0.0
 10
15.739401
 20
16.423750
 30
0.0
 10
14.800361
 20
15.735740
 30
0.0
 10
13.830583
 20
15.115890
 30
0.0
 10
12.831003
 20
14.572610
 30
0.0
 10
11.802557
 20
14.114290
 30
0.0
 10
10.746182
 20
13.749360
 30
0.0
 10
9.662812
 20
13.486200
 30
0.0
 10
8.553384
 20
13.333230
 30
0.0
 10
7.418835
 20
13.298830
 30
0.0
 10
6.260100
 20
13.391430
 30
0.0
 10
5.078116
 20
13.619450
 30
0.0
 10
4.001956
 20
13.870820
 30
0.0
 10
3.021645
 20
14.066350
 30
0.0
 10
2.129800
 20
14.213610
 30
0.0
 10
1.319037
 20
14.320170
 30
0.0
 10
0.581971
 20
14.393570
 30
0.0
 10
-0.088779
 20
14.441470
 30
0.0
 10
-0.700600
 20
14.471370
 30
0.0
 10
-1.260874
 20
14.490870
 30
0.0
 10
-1.776986
 20
14.507570
 30
0.0
 10
-2.256318
 20
14.528970
 30
0.0
 10
-2.706256
 20
14.562670
 30
0.0
 10
-3.134184
 20
14.616270
 30
0.0
 10
-3.547484
 20
14.697370
 30
0.0
 10
-3.953541
 20
14.813470
 30
0.0
 10
-4.359738
 20
14.972160
 30
0.0
 10
-4.773460
 20
15.181040
 30
0.0
 10
-5.202091
 20
15.447660
 30
0.0
 10
-5.653014
 20
15.779610
 30
0.0
 10
-6.133613
 20
16.184450
 30
0.0
 10
-6.651272
 20
16.669760
 30
0.0
 10
-7.213376
 20
17.243110
 30
0.0
 10
-7.827307
 20
17.912080
 30
0.0
 10
-8.500450
 20
18.684230
 30
0.0
 10
-9.240188
 20
19.567140
 30
0.0
 10
-10.053906
 20
20.568380
 30
0.0
 10
-10.948987
 20
21.695530
 30
0.0
 10
-11.932816
 20
22.956160
 30
0.0
 10
-13.012775
 20
24.357830
 30
0.0
 10
-14.196250
 20
25.908140
 30
0.0
 10
-15.490623
 20
27.614630
 30
0.0
 10
-16.903279
 20
29.484900
 30
0.0
  0
LWPOLYLINE
  5
101
100
AcDbEntity
  8
Capa_1
 62
7
100
AcDbPolyline
 90
128
 70
1
 10
36.521114
 20
65.093060
 30
0.0
 10
36.506114
 20
64.499820
 30
0.0
 10
36.461594
 20
63.914360
 30
0.0
 10
36.388284
 20
63.337420
 30
0.0
 10
36.286902
 20
62.769710
 30
0.0
 10
36.158174
 20
62.211970
 30
0.0
 10
36.002826
 20
61.664910
 30
0.0
 10
35.821582
 20
61.129250
 30
0.0
 10
35.615166
 20
60.605740
 30
0.0
 10
35.384302
 20
60.095080
 30
0.0
 10
35.129714
 20
59.598000
 30
0.0
 10
34.852127
 20
59.115230
 30
0.0
 10
34.552266
 20
58.647490
 30
0.0
 10
34.230855
 20
58.195510
 30
0.0
 10
33.888617
 20
57.760010
 30
0.0
 10
33.526278
 20
57.341710
 30
0.0
 10
33.144561
 20
56.941340
 30
0.0
 10
32.744191
 20
56.559630
 30
0.0
 10
32.325893
 20
56.197290
 30
0.0
 10
31.890391
 20
55.855050
 30
0.0
 10
31.438408
 20
55.533640
 30
0.0
 10
30.970670
 20
55.233780
 30
0.0
 10
30.487901
 20
54.956190
 30
0.0
 10
29.990824
 20
54.701600
 30
0.0
 10
29.480165
 20
54.470740
 30
0.0
 10
28.956648
 20
54.264320
 30
0.0
 10
28.420997
 20
54.083080
 30
0.0
 10
27.873937
 20
53.927730
 30
0.0
 10
27.316191
 20
53.799000
 30
0.0
 10
26.748484
 20
53.697620
 30
0.0
 10
26.171541
 20
53.624320
 30
0.0
 10
25.586085
 20
53.579820
 30
0.0
 10
24.992842
 20
53.564820
 30
0.0
 10
24.399599
 20
53.579820
 30
0.0
 10
23.814143
 20
53.624320
 30
0.0
 10
23.237200
 20
53.697620
 30
0.0
 10
22.669493
 20
53.799000
 30
0.0
 10
22.111747
 20
53.927730
 30
0.0
 10
21.564687
 20
54.083080
 30
0.0
 10
21.029036
 20
54.264320
 30
0.0
 10
20.505518
 20
54.470740
 30
0.0
 10
19.994859
 20
54.701600
 30
0.0
 10
19.497783
 20
54.956190
 30
0.0
 10
19.015014
 20
55.233780
 30
0.0
 10
18.547275
 20
55.533640
 30
0.0
 10
18.095293
 20
55.855050
 30
0.0
 10
17.659790
 20
56.197290
 30
0.0
 10
17.241492
 20
56.559630
 30
0.0
 10
16.841122
 20
56.941340
 30
0.0
 10
16.459406
 20
57.341710
 30
0.0
 10
16.097066
 20
57.760010
 30
0.0
 10
15.754829
 20
58.195510
 30
0.0
 10
15.433417
 20
58.647490
 30
0.0
 10
15.133556
 20
59.115230
 30
0.0
 10
14.855969
 20
59.598000
 30
0.0
 10
14.601382
 20
60.095080
 30
0.0
 10
14.370517
 20
60.605740
 30
0.0
 10
14.164101
 20
61.129250
 30
0.0
 10
13.982857
 20
61.664900
 30
0.0
 10
13.827509
 20
62.211970
 30
0.0
 10
13.698781
 20
62.769710
 30
0.0
 10
13.597399
 20
63.337420
 30
0.0
 10
13.524089
 20
63.914360
 30
0.0
 10
13.479569
 20
64.499820
 30
0.0
 10
13.464569
 20
65.093060
 30
0.0
 10
13.479569
 20
65.686300
 30
0.0
 10
13.524089
 20
66.271760
 30
0.0
 10
13.597399
 20
66.848700
 30
0.0
 10
13.698781
 20
67.416410
 30
0.0
 10
13.827508
 20
67.974160
 30
0.0
 10
13.982855
 20
68.521220
 30
0.0
 10
14.164099
 20
69.056870
 30
0.0
 10
14.370516
 20
69.580390
 30
0.0
 10
14.601380
 20
70.091050
 30
0.0
 10
14.855967
 20
70.588120
 30
0.0
 10
15.133553
 20
71.070890
 30
0.0
 10
15.433415
 20
71.538630
 30
0.0
 10
15.754826
 20
71.990610
 30
0.0
 10
16.097064
 20
72.426120
 30
0.0
 10
16.459403
 20
72.844410
 30
0.0
 10
16.841120
 20
73.244780
 30
0.0
 10
17.241490
 20
73.626500
 30
0.0
 10
17.659788
 20
73.988840
 30
0.0
 10
18.095291
 20
74.331080
 30
0.0
 10
18.547273
 20
74.652490
 30
0.0
 10
19.015012
 20
74.952350
 30
0.0
 10
19.497781
 20
75.229940
 30
0.0
 10
19.994858
 20
75.484530
 30
0.0
 10
20.505517
 20
75.715390
 30
0.0
 10
21.029034
 20
75.921810
 30
0.0
 10
21.564686
 20
76.103050
 30
0.0
 10
22.111747
 20
76.258400
 30
0.0
 10
22.669493
 20
76.387130
 30
0.0
 10
23.237200
 20
76.488510
 30
0.0
 10
23.814143
 20
76.561810
 30
0.0
 10
24.399599
 20
76.606310
 30
0.0
 10
24.992843
 20
76.621310
 30
0.0
 10
25.586087
 20
76.606310
 30
0.0
 10
26.171542
 20
76.561810
 30
0.0
 10
26.748486
 20
76.488510
 30
0.0
 10
27.316193
 20
76.387130
 30
0.0
 10
27.873939
 20
76.258400
 30
0.0
 10
28.421000
 20
76.103050
 30
0.0
 10
28.956651
 20
75.921810
 30
0.0
 10
29.480169
 20
75.715390
 30
0.0
 10
29.990828
 20
75.484530
 30
0.0
 10
30.487904
 20
75.229940
 30
0.0
 10
30.970674
 20
74.952350
 30
0.0
 10
31.438412
 20
74.652490
 30
0.0
 10
31.890395
 20
74.331080
 30
0.0
 10
32.325898
 20
73.988840
 30
0.0
 10
32.744196
 20
73.626500
 30
0.0
 10
33.144566
 20
73.244780
 30
0.0
 10
33.526282
 20
72.844410
 30
0.0
 10
33.888621
 20
72.426120
 30
0.0
 10
34.230859
 20
71.990610
 30
0.0
 10
34.552271
 20
71.538630
 30
0.0
 10
34.852132
 20
71.070890
 30
0.0
 10
35.129718
 20
70.588120
 30
0.0
 10
35.384306
 20
70.091050
 30
0.0
 10
35.615170
 20
69.580390
 30
0.0
 10
35.821586
 20
69.056870
 30
0.0
 10
36.002830
 20
68.521220
 30
0.0
 10
36.158177
 20
67.974160
 30
0.0
 10
36.286904
 20
67.416410
 30
0.0
 10
36.388286
 20
66.848700
 30
0.0
 10
36.461596
 20
66.271760
 30
0.0
 10
36.506116
 20
65.686300
 30
0.0
  0
LWPOLYLINE
  5
102
100
AcDbEntity
  8
Capa_1
 62
7
100
AcDbPolyline
 90
128
 70
1
 10
-11.052856
 20
64.825790
 30
0.0
 10
-11.067856
 20
64.232550
 30
0.0
 10
-11.112376
 20
63.647090
 30
0.0
 10
-11.185686
 20
63.070150
 30
0.0
 10
-11.287068
 20
62.502440
 30
0.0
 10
-11.415796
 20
61.944700
 30
0.0
 10
-11.571144
 20
61.397630
 30
0.0
 10
-11.752388
 20
60.861980
 30
0.0
 10
-11.958804
 20
60.338470
 30
0.0
 10
-12.189669
 20
59.827810
 30
0.0
 10
-12.444256
 20
59.330730
 30
0.0
 10
-12.721843
 20
58.847960
 30
0.0
 10
-13.021704
 20
58.380220
 30
0.0
 10
-13.343116
 20
57.928240
 30
0.0
 10
-13.685353
 20
57.492740
 30
0.0
 10
-14.047693
 20
57.074440
 30
0.0
 10
-14.429409
 20
56.674070
 30
0.0
 10
-14.829779
 20
56.292360
 30
0.0
 10
-15.248077
 20
55.930020
 30
0.0
 10
-15.683580
 20
55.587780
 30
0.0
 10
-16.135562
 20
55.266370
 30
0.0
 10
-16.603301
 20
54.966510
 30
0.0
 10
-17.086070
 20
54.688920
 30
0.0
 10
-17.583146
 20
54.434330
 30
0.0
 10
-18.093805
 20
54.203470
 30
0.0
 10
-18.617323
 20
53.997050
 30
0.0
 10
-19.152974
 20
53.815810
 30
0.0
 10
-19.700034
 20
53.660460
 30
0.0
 10
-20.257780
 20
53.531730
 30
0.0
 10
-20.825487
 20
53.430350
 30
0.0
 10
-21.402430
 20
53.357050
 30
0.0
 10
-21.987886
 20
53.312550
 30
0.0
 10
-22.581129
 20
53.297550
 30
0.0
 10
-23.174372
 20
53.312550
 30
0.0
 10
-23.759828
 20
53.357050
 30
0.0
 10
-24.336771
 20
53.430350
 30
0.0
 10
-24.904478
 20
53.531730
 30
0.0
 10
-25.462224
 20
53.660460
 30
0.0
 10
-26.009284
 20
53.815810
 30
0.0
 10
-26.544935
 20
53.997050
 30
0.0
 10
-27.068453
 20
54.203470
 30
0.0
 10
-27.579112
 20
54.434330
 30
0.0
 10
-28.076188
 20
54.688920
 30
0.0
 10
-28.558957
 20
54.966510
 30
0.0
 10
-29.026696
 20
55.266370
 30
0.0
 10
-29.478678
 20
55.587780
 30
0.0
 10
-29.914181
 20
55.930020
 30
0.0
 10
-30.332479
 20
56.292360
 30
0.0
 10
-30.732849
 20
56.674070
 30
0.0
 10
-31.114565
 20
57.074440
 30
0.0
 10
-31.476905
 20
57.492740
 30
0.0
 10
-31.819142
 20
57.928240
 30
0.0
 10
-32.140554
 20
58.380220
 30
0.0
 10
-32.440415
 20
58.847960
 30
0.0
 10
-32.718002
 20
59.330730
 30
0.0
 10
-32.972589
 20
59.827810
 30
0.0
 10
-33.203454
 20
60.338470
 30
0.0
 10
-33.409870
 20
60.861980
 30
0.0
 10
-33.591114
 20
61.397630
 30
0.0
 10
-33.746462
 20
61.944700
 30
0.0
 10
-33.875190
 20
62.502440
 30
0.0
 10
-33.976572
 20
63.070150
 30
0.0
 10
-34.049882
 20
63.647090
 30
0.0
 10
-34.094402
 20
64.232550
 30
0.0
 10
-34.109402
 20
64.825790
 30
0.0
 10
-34.094402
 20
65.419030
 30
0.0
 10
-34.049882
 20
66.004490
 30
0.0
 10
-33.976572
 20
66.581430
 30
0.0
 10
-33.875190
 20
67.149140
 30
0.0
 10
-33.746463
 20
67.706880
 30
0.0
 10
-33.591115
 20
68.253950
 30
0.0
 10
-33.409871
 20
68.789600
 30
0.0
 10
-33.203455
 20
69.313110
 30
0.0
 10
-32.972591
 20
69.823770
 30
0.0
 10
-32.718003
 20
70.320850
 30
0.0
 10
-32.440417
 20
70.803620
 30
0.0
 10
-32.140555
 20
71.271360
 30
0.0
 10
-31.819144
 20
71.723340
 30
0.0
 10
-31.476906
 20
72.158840
 30
0.0
 10
-31.114567
 20
72.577140
 30
0.0
 10
-30.732850
 20
72.977510
 30
0.0
 10
-30.332480
 20
73.359220
 30
0.0
 10
-29.914182
 20
73.721560
 30
0.0
 10
-29.478679
 20
74.063800
 30
0.0
 10
-29.026696
 20
74.385210
 30
0.0
 10
-28.558958
 20
74.685070
 30
0.0
 10
-28.076188
 20
74.962660
 30
0.0
 10
-27.579112
 20
75.217250
 30
0.0
 10
-27.068452
 20
75.448110
 30
0.0
 10
-26.544935
 20
75.654530
 30
0.0
 10
-26.009284
 20
75.835770
 30
0.0
 10
-25.462223
 20
75.991120
 30
0.0
 10
-24.904477
 20
76.119850
 30
0.0
 10
-24.336770
 20
76.221230
 30
0.0
 10
-23.759827
 20
76.294530
 30
0.0
 10
-23.174371
 20
76.339030
 30
0.0
 10
-22.581128
 20
76.354030
 30
0.0
 10
-21.987885
 20
76.339030
 30
0.0
 10
-21.402429
 20
76.294530
 30
0.0
 10
-20.825486
 20
76.221230
 30
0.0
 10
-20.257779
 20
76.119850
 30
0.0
 10
-19.700033
 20
75.991120
 30
0.0
 10
-19.152972
 20
75.835770
 30
0.0
 10
-18.617321
 20
75.654530
 30
0.0
 10
-18.093804
 20
75.448110
 30
0.0
 10
-17.583144
 20
75.217250
 30
0.0
 10
-17.086068
 20
74.962660
 30
0.0
 10
-16.603298
 20
74.685070
 30
0.0
 10
-16.135560
 20
74.385210
 30
0.0
 10
-15.683577
 20
74.063800
 30
0.0
 10
-15.248074
 20
73.721560
 30
0.0
 10
-14.829776
 20
73.359220
 30
0.0
 10
-14.429406
 20
72.977510
 30
0.0
 10
-14.047689
 20
72.577140
 30
0.0
 10
-13.685350
 20
72.158840
 30
0.0
 10
-13.343112
 20
71.723340
 30
0.0
 10
-13.021701
 20
71.271360
 30
0.0
 10
-12.721839
 20
70.803620
 30
0.0
 10
-12.444253
 20
70.320850
 30
0.0
 10
-12.189665
 20
69.823770
 30
0.0
 10
-11.958801
 20
69.313110
 30
0.0
 10
-11.752385
 20
68.789600
 30
0.0
 10
-11.571141
 20
68.253950
 30
0.0
 10
-11.415793
 20
67.706880
 30
0.0
 10
-11.287066
 20
67.149140
 30
0.0
 10
-11.185684
 20
66.581430
 30
0.0
 10
-11.112374
 20
66.004490
 30
0.0
 10
-11.067854
 20
65.419030
 30
0.0
  0
LWPOLYLINE
  5
103
100
AcDbEntity
  8
Capa_1
 62
7
100
AcDbPolyline
 90
128
 70
1
 10
54.546352
 20
52.352570
 30
0.0
 10
54.477992
 20
49.648940
 30
0.0
 10
54.275104
 20
46.980790
 30
0.0
 10
53.940991
 20
44.351450
 30
0.0
 10
53.478956
 20
41.764190
 30
0.0
 10
52.892298
 20
39.222330
 30
0.0
 10
52.184320
 20
36.729170
 30
0.0
 10
51.358322
 20
34.288010
 30
0.0
 10
50.417605
 20
31.902140
 30
0.0
 10
49.365470
 20
29.574880
 30
0.0
 10
48.205219
 20
27.309510
 30
0.0
 10
46.940153
 20
25.109350
 30
0.0
 10
45.573572
 20
22.977690
 30
0.0
 10
44.108779
 20
20.917830
 30
0.0
 10
42.549073
 20
18.933080
 30
0.0
 10
40.897756
 20
17.026740
 30
0.0
 10
39.158130
 20
15.202110
 30
0.0
 10
37.333494
 20
13.462480
 30
0.0
 10
35.427151
 20
11.811160
 30
0.0
 10
33.442402
 20
10.251460
 30
0.0
 10
31.382547
 20
8.786660
 30
0.0
 10
29.250888
 20
7.420080
 30
0.0
 10
27.050725
 20
6.155020
 30
0.0
 10
24.785361
 20
4.994770
 30
0.0
 10
22.458095
 20
3.942630
 30
0.0
 10
20.072229
 20
3.001910
 30
0.0
 10
17.631065
 20
2.175920
 30
0.0
 10
15.137903
 20
1.467940
 30
0.0
 10
12.596044
 20
0.881280
 30
0.0
 10
10.008790
 20
0.419240
 30
0.0
 10
7.379442
 20
0.085130
 30
0.0
 10
4.711300
 20
-0.117760
 30
0.0
 10
2.007666
 20
-0.186160
 30
0.0
 10
-0.695968
 20
-0.117760
 30
0.0
 10
-3.364110
 20
0.085130
 30
0.0
 10
-5.993458
 20
0.419240
 30
0.0
 10
-8.580713
 20
0.881280
 30
0.0
 10
-11.122571
 20
1.467940
 30
0.0
 10
-13.615733
 20
2.175920
 30
0.0
 10
-16.056897
 20
3.001910
 30
0.0
 10
-18.442763
 20
3.942630
 30
0.0
 10
-20.770029
 20
4.994770
 30
0.0
 10
-23.035393
 20
6.155020
 30
0.0
 10
-25.235556
 20
7.420080
 30
0.0
 10
-27.367215
 20
8.786660
 30
0.0
 10
-29.427070
 20
10.251460
 30
0.0
 10
-31.411819
 20
11.811160
 30
0.0
 10
-33.318162
 20
13.462480
 30
0.0
 10
-35.142798
 20
15.202110
 30
0.0
 10
-36.882424
 20
17.026740
 30
0.0
 10
-38.533741
 20
18.933080
 30
0.0
 10
-40.093447
 20
20.917830
 30
0.0
 10
-41.558240
 20
22.977690
 30
0.0
 10
-42.924821
 20
25.109350
 30
0.0
 10
-44.189887
 20
27.309510
 30
0.0
 10
-45.350138
 20
29.574880
 30
0.0
 10
-46.402273
 20
31.902140
 30
0.0
 10
-47.342990
 20
34.288010
 30
0.0
 10
-48.168988
 20
36.729170
 30
0.0
 10
-48.876966
 20
39.222330
 30
0.0
 10
-49.463624
 20
41.764190
 30
0.0
 10
-49.925659
 20
44.351450
 30
0.0
 10
-50.259772
 20
46.980790
 30
0.0
 10
-50.462660
 20
49.648940
 30
0.0
 10
-50.531020
 20
52.352570
 30
0.0
 10
-50.462660
 20
55.056200
 30
0.0
 10
-50.259772
 20
57.724350
 30
0.0
 10
-49.925659
 20
60.353690
 30
0.0
 10
-49.463623
 20
62.940950
 30
0.0
 10
-48.876966
 20
65.482810
 30
0.0
 10
-48.168987
 20
67.975970
 30
0.0
 10
-47.342989
 20
70.417130
 30
0.0
 10
-46.402272
 20
72.803000
 30
0.0
 10
-45.350138
 20
75.130260
 30
0.0
 10
-44.189887
 20
77.395630
 30
0.0
 10
-42.924820
 20
79.595790
 30
0.0
 10
-41.558240
 20
81.727450
 30
0.0
 10
-40.093446
 20
83.787310
 30
0.0
 10
-38.533740
 20
85.772060
 30
0.0
 10
-36.882424
 20
87.678400
 30
0.0
 10
-35.142797
 20
89.503030
 30
0.0
 10
-33.318162
 20
91.242660
 30
0.0
 10
-31.411819
 20
92.893980
 30
0.0
 10
-29.427070
 20
94.453680
 30
0.0
 10
-27.367215
 20
95.918480
 30
0.0
 10
-25.235555
 20
97.285060
 30
0.0
 10
-23.035393
 20
98.550120
 30
0.0
 10
-20.770028
 20
99.710370
 30
0.0
 10
-18.442763
 20
100.762510
 30
0.0
 10
-16.056897
 20
101.703230
 30
0.0
 10
-13.615733
 20
102.529220
 30
0.0
 10
-11.122571
 20
103.237200
 30
0.0
 10
-8.580712
 20
103.823860
 30
0.0
 10
-5.993458
 20
104.285900
 30
0.0
 10
-3.364110
 20
104.620010
 30
0.0
 10
-0.695968
 20
104.822900
 30
0.0
 10
2.007666
 20
104.891300
 30
0.0
 10
4.711300
 20
104.822900
 30
0.0
 10
7.379442
 20
104.620010
 30
0.0
 10
10.008790
 20
104.285900
 30
0.0
 10
12.596044
 20
103.823860
 30
0.0
 10
15.137903
 20
103.237200
 30
0.0
 10
17.631065
 20
102.529220
 30
0.0
 10
20.072229
 20
101.703230
 30
0.0
 10
22.458095
 20
100.762510
 30
0.0
 10
24.785360
 20
99.710370
 30
0.0
 10
27.050725
 20
98.550120
 30
0.0
 10
29.250887
 20
97.285060
 30
0.0
 10
31.382547
 20
95.918480
 30
0.0
 10
33.442402
 20
94.453680
 30
0.0
 10
35.427151
 20
92.893980
 30
0.0
 10
37.333494
 20
91.242660
 30
0.0
 10
39.158129
 20
89.503030
 30
0.0
 10
40.897756
 20
87.678400
 30
0.0
 10
42.549072
 20
85.772060
 30
0.0
 10
44.108778
 20
83.787310
 30
0.0
 10
45.573572
 20
81.727450
 30
0.0
 10
46.940152
 20
79.595790
 30
0.0
 10
48.205219
 20
77.395630
 30
0.0
 10
49.365470
 20
75.130260
 30
0.0
 10
50.417604
 20
72.803000
 30
0.0
 10
51.358321
 20
70.417130
 30
0.0
 10
52.184319
 20
67.975970
 30
0.0
 10
52.892298
 20
65.482810
 30
0.0
 10
53.478955
 20
62.940950
 30
0.0
 10
53.940991
 20
60.353690
 30
0.0
 10
54.275104
 20
57.724350
 30
0.0
 10
54.477992
 20
55.056200
 30
0.0
  0
ENDSEC
  0
SECTION
  2
OBJECTS
  0
DICTIONARY
  5
C
330
0
100
AcDbDictionary
  3
ACAD_GROUP
350
D
  3
ACAD_MLINESTYLE
350
17
  0
DICTIONARY
  5
D
330
C
100
AcDbDictionary
  0
DICTIONARY
  5
1A
330
C
100
AcDbDictionary
  0
DICTIONARY
  5
17
330
C
100
AcDbDictionary
  3
STANDARD
350
18
  0
DICTIONARY
  5
19
330
C
100
AcDbDictionary
  0
ENDSEC
  0
EOF
