  0
SECTION
  2
HEADER
  9
$ACADVER
  1
AC1014
  9
$HANDSEED
  5
FFFF
  9
$MEASUREMENT
 70
     1
  0
ENDSEC
  0
SECTION
  2
TABLES
  0
TABLE
  2
VPORT
  5
8
330
0
100
AcDbSymbolTable
 70
     4
  0
VPORT
  5
2E
330
8
100
AcDbSymbolTableRecord
100
AcDbViewportTableRecord
  2
*ACTIVE
 70
     0
 10
0.0
 20
0.0
 11
1.0
 21
1.0
 12
210.0
 22
148.5
 13
0.0
 23
0.0
 14
10.0
 24
10.0
 15
10.0
 25
10.0
 16
0.0
 26
0.0
 36
1.0
 17
0.0
 27
0.0
 37
0.0
 40
341.0
 41
1.24
 42
50.0
 43
0.0
 44
0.0
 50
0.0
 51
0.0
 71
     0
 72
   100
 73
     1
 74
     3
 75
     0
 76
     0
 77
     0
 78
     0
  0
ENDTAB
  0
TABLE
  2
LTYPE
  5
5
330
0
100
AcDbSymbolTable
 70
     1
  0
LTYPE
  5
14
330
5
100
AcDbSymbolTableRecord
100
AcDbLinetypeTableRecord
  2
BYBLOCK
 70
     0
  3

 72
    65
 73
     0
 40
0.0
  0
LTYPE
  5
15
330
5
100
AcDbSymbolTableRecord
100
AcDbLinetypeTableRecord
  2
BYLAYER
 70
     0
  3

 72
    65
 73
     0
 40
0.0
  0
LTYPE
  5
16
330
5
100
AcDbSymbolTableRecord
100
AcDbLinetypeTableRecord
  2
CONTINUOUS
 70
     0
  3
Solid line
 72
    65
 73
     0
 40
0.0
  0
ENDTAB
  0
TABLE
  2
LAYER
  5
2
100
AcDbSymbolTable
 70
2
  0
LAYER
  5
50
100
AcDbSymbolTableRecord
100
AcDbLayerTableRecord
  2
0
 70
0
  6
CONTINUOUS
  0
LAYER
  5
51
100
AcDbSymbolTableRecord
100
AcDbLayerTableRecord
  2
Capa_1
 70
0
  6
CONTINUOUS
  0
ENDTAB
  0
TABLE
  2
STYLE
  5
3
330
0
100
AcDbSymbolTable
 70
     1
  0
STYLE
  5
11
330
3
100
AcDbSymbolTableRecord
100
AcDbTextStyleTableRecord
  2
STANDARD
 70
     0
 40
0.0
 41
1.0
 50
0.0
 71
     0
 42
2.5
  3
txt
  4

  0
ENDTAB
  0
TABLE
  2
VIEW
  5
6
330
0
100
AcDbSymbolTable
 70
     0
  0
ENDTAB
  0
TABLE
  2
UCS
  5
7
330
0
100
AcDbSymbolTable
 70
     0
  0
ENDTAB
  0
TABLE
  2
APPID
  5
9
330
0
100
AcDbSymbolTable
 70
     2
  0
APPID
  5
12
330
9
100
AcDbSymbolTableRecord
100
AcDbRegAppTableRecord
  2
ACAD
 70
     0
  0
ENDTAB
  0
TABLE
  2
DIMSTYLE
  5
A
330
0
100
AcDbSymbolTable
 70
     1
  0
DIMSTYLE
105
27
330
A
100
AcDbSymbolTableRecord
100
AcDbDimStyleTableRecord
  2
ISO-25
 70
     0
  3

  4

  5

  6

  7

 40
1.0
 41
2.5
 42
0.625
 43
3.75
 44
1.25
 45
0.0
 46
0.0
 47
0.0
 48
0.0
140
2.5
141
2.5
142
0.0
143
0.03937007874016
144
1.0
145
0.0
146
1.0
147
0.625
 71
     0
 72
     0
 73
     0
 74
     0
 75
     0
 76
     0
 77
     1
 78
     8
170
     0
171
     3
172
     1
173
     0
174
     0
175
     0
176
     0
177
     0
178
     0
270
     2
271
     2
272
     2
273
     2
274
     3
340
11
275
     0
280
     0
281
     0
282
     0
283
     0
284
     8
285
     0
286
     0
287
     3
288
     0
  0
ENDTAB
  0
TABLE
  2
BLOCK_RECORD
  5
1
330
0
100
AcDbSymbolTable
 70
     1
  0
BLOCK_RECORD
  5
1F
330
1
100
AcDbSymbolTableRecord
100
AcDbBlockTableRecord
  2
*MODEL_SPACE
  0
BLOCK_RECORD
  5
1B
330
1
100
AcDbSymbolTableRecord
100
AcDbBlockTableRecord
  2
*PAPER_SPACE
  0
ENDTAB
  0
ENDSEC
  0
SECTION
  2
BLOCKS
  0
BLOCK
  5
20
330
1F
100
AcDbEntity
  8
0
100
AcDbBlockBegin
  2
*MODEL_SPACE
 70
     0
 10
0.0
 20
0.0
 30
0.0
  3
*MODEL_SPACE
  1

  0
ENDBLK
  5
21
330
1F
100
AcDbEntity
  8
0
100
AcDbBlockEnd
  0
BLOCK
  5
1C
330
1B
100
AcDbEntity
 67
     1
  8
0
100
AcDbBlockBegin
  2
*PAPER_SPACE
  1

  0
ENDBLK
  5
1D
330
1B
100
AcDbEntity
 67
     1
  8
0
100
AcDbBlockEnd
  0
ENDSEC
  0
SECTION
  2
ENTITIES
  0
LWPOLYLINE
  5
100
100
AcDbEntity
  8
Capa_1
 62
7
100
AcDbPolyline
 90
192
 70
1
 10
-33.517489
 20
-8.695020
 30
0.0
 10
-33.584759
 20
-8.278100
 30
0.0
 10
-33.754460
 20
-7.096000
 30
0.0
 10
-33.978422
 20
-5.251710
 30
0.0
 10
-34.208475
 20
-2.848200
 30
0.0
 10
-34.396448
 20
0.011540
 30
0.0
 10
-34.494168
 20
3.224520
 30
0.0
 10
-34.453468
 20
6.687760
 30
0.0
 10
-34.226184
 20
10.298280
 30
0.0
 10
-33.764142
 20
13.953100
 30
0.0
 10
-33.019171
 20
17.549220
 30
0.0
 10
-31.943101
 20
20.983670
 30
0.0
 10
-30.487764
 20
24.153470
 30
0.0
 10
-28.604988
 20
26.955620
 30
0.0
 10
-26.246605
 20
29.287150
 30
0.0
 10
-23.364445
 20
31.045080
 30
0.0
 10
-19.910337
 20
32.126410
 30
0.0
 10
-15.002266
 20
32.405310
 30
0.0
 10
-11.297230
 20
31.274130
 30
0.0
 10
-8.624346
 20
28.931880
 30
0.0
 10
-6.812728
 20
25.577600
 30
0.0
 10
-5.691493
 20
21.410290
 30
0.0
 10
-5.089756
 20
16.628990
 30
0.0
 10
-4.836633
 20
11.432730
 30
0.0
 10
-4.761243
 20
6.020520
 30
0.0
 10
-4.692693
 20
0.591390
 30
0.0
 10
-4.460104
 20
-4.655630
 30
0.0
 10
-3.892592
 20
-9.521530
 30
0.0
 10
-2.819272
 20
-13.807270
 30
0.0
 10
-1.069259
 20
-17.313840
 30
0.0
 10
1.528331
 20
-19.842200
 30
0.0
 10
5.144382
 20
-21.193340
 30
0.0
 10
9.949779
 20
-21.168240
 30
0.0
 10
16.152889
 20
-20.260860
 30
0.0
 10
21.871532
 20
-19.383930
 30
0.0
 10
27.117336
 20
-18.541330
 30
0.0
 10
31.901932
 20
-17.736930
 30
0.0
 10
36.236932
 20
-16.974610
 30
0.0
 10
40.133982
 20
-16.258250
 30
0.0
 10
43.604702
 20
-15.591720
 30
0.0
 10
46.660722
 20
-14.978890
 30
0.0
 10
49.313662
 20
-14.423640
 30
0.0
 10
51.575152
 20
-13.929860
 30
0.0
 10
53.456812
 20
-13.501410
 30
0.0
 10
54.970292
 20
-13.142160
 30
0.0
 10
56.127192
 20
-12.856010
 30
0.0
 10
56.939162
 20
-12.646810
 30
0.0
 10
57.417812
 20
-12.518450
 30
0.0
 10
57.574782
 20
-12.474750
 30
0.0
 10
57.858262
 20
-13.301570
 30
0.0
 10
58.141742
 20
-14.128390
 30
0.0
 10
58.425232
 20
-14.955220
 30
0.0
 10
58.708712
 20
-15.782040
 30
0.0
 10
58.992192
 20
-16.608860
 30
0.0
 10
59.275672
 20
-17.435680
 30
0.0
 10
59.559152
 20
-18.262510
 30
0.0
 10
59.842632
 20
-19.089330
 30
0.0
 10
60.126122
 20
-19.916150
 30
0.0
 10
60.409602
 20
-20.742970
 30
0.0
 10
60.693082
 20
-21.569800
 30
0.0
 10
60.976562
 20
-22.396620
 30
0.0
 10
61.260042
 20
-23.223440
 30
0.0
 10
61.543532
 20
-24.050260
 30
0.0
 10
61.827012
 20
-24.877090
 30
0.0
 10
62.110492
 20
-25.703910
 30
0.0
 10
63.220792
 20
-24.144760
 30
0.0
 10
64.331102
 20
-22.585610
 30
0.0
 10
65.441402
 20
-21.026450
 30
0.0
 10
66.551712
 20
-19.467300
 30
0.0
 10
67.662012
 20
-17.908150
 30
0.0
 10
68.772322
 20
-16.349000
 30
0.0
 10
69.882622
 20
-14.789850
 30
0.0
 10
70.992932
 20
-13.230700
 30
0.0
 10
72.103232
 20
-11.671540
 30
0.0
 10
73.213542
 20
-10.112390
 30
0.0
 10
74.323842
 20
-8.553240
 30
0.0
 10
75.434152
 20
-6.994090
 30
0.0
 10
76.544452
 20
-5.434940
 30
0.0
 10
77.654762
 20
-3.875780
 30
0.0
 10
78.765062
 20
-2.316630
 30
0.0
 10
79.875372
 20
-0.757480
 30
0.0
 10
78.056362
 20
-0.143270
 30
0.0
 10
76.237352
 20
0.470940
 30
0.0
 10
74.418342
 20
1.085150
 30
0.0
 10
72.599332
 20
1.699360
 30
0.0
 10
70.780322
 20
2.313580
 30
0.0
 10
68.961312
 20
2.927790
 30
0.0
 10
67.142302
 20
3.542000
 30
0.0
 10
65.323292
 20
4.156210
 30
0.0
 10
63.504282
 20
4.770420
 30
0.0
 10
61.685272
 20
5.384630
 30
0.0
 10
59.866262
 20
5.998840
 30
0.0
 10
58.047252
 20
6.613050
 30
0.0
 10
56.228242
 20
7.227270
 30
0.0
 10
54.409232
 20
7.841480
 30
0.0
 10
52.590222
 20
8.455690
 30
0.0
 10
50.771212
 20
9.069900
 30
0.0
 10
50.936572
 20
8.313950
 30
0.0
 10
51.101942
 20
7.558000
 30
0.0
 10
51.267302
 20
6.802040
 30
0.0
 10
51.432672
 20
6.046090
 30
0.0
 10
51.598032
 20
5.290140
 30
0.0
 10
51.763402
 20
4.534190
 30
0.0
 10
51.928762
 20
3.778230
 30
0.0
 10
52.094122
 20
3.022280
 30
0.0
 10
52.259492
 20
2.266330
 30
0.0
 10
52.424852
 20
1.510370
 30
0.0
 10
52.590222
 20
0.754420
 30
0.0
 10
52.755582
 20
-0.001530
 30
0.0
 10
52.920952
 20
-0.757480
 30
0.0
 10
53.086312
 20
-1.513440
 30
0.0
 10
53.251682
 20
-2.269390
 30
0.0
 10
53.417042
 20
-3.025340
 30
0.0
 10
53.040912
 20
-3.178150
 30
0.0
 10
51.967152
 20
-3.592300
 30
0.0
 10
50.277702
 20
-4.201350
 30
0.0
 10
48.054502
 20
-4.938840
 30
0.0
 10
45.379512
 20
-5.738350
 30
0.0
 10
42.334662
 20
-6.533430
 30
0.0
 10
39.001902
 20
-7.257640
 30
0.0
 10
35.463172
 20
-7.844540
 30
0.0
 10
31.800422
 20
-8.227680
 30
0.0
 10
28.095590
 20
-8.340630
 30
0.0
 10
24.430623
 20
-8.116940
 30
0.0
 10
20.887466
 20
-7.490180
 30
0.0
 10
17.548061
 20
-6.393900
 30
0.0
 10
14.494353
 20
-4.761670
 30
0.0
 10
11.808285
 20
-2.527030
 30
0.0
 10
9.571803
 20
0.376450
 30
0.0
 10
7.923068
 20
3.577860
 30
0.0
 10
6.707353
 20
6.949820
 30
0.0
 10
5.853327
 20
10.454090
 30
0.0
 10
5.289658
 20
14.052400
 30
0.0
 10
4.945014
 20
17.706520
 30
0.0
 10
4.748063
 20
21.378210
 30
0.0
 10
4.627474
 20
25.029220
 30
0.0
 10
4.511915
 20
28.621310
 30
0.0
 10
4.330055
 20
32.116220
 30
0.0
 10
4.010560
 20
35.475720
 30
0.0
 10
3.482100
 20
38.661560
 30
0.0
 10
2.673343
 20
41.635490
 30
0.0
 10
1.512957
 20
44.359280
 30
0.0
 10
-0.070389
 20
46.794670
 30
0.0
 10
-2.148029
 20
48.903410
 30
0.0
 10
-4.791292
 20
50.647280
 30
0.0
 10
-7.632110
 20
52.105720
 30
0.0
 10
-10.478202
 20
53.473090
 30
0.0
 10
-13.319493
 20
54.702240
 30
0.0
 10
-16.145906
 20
55.746050
 30
0.0
 10
-18.947366
 20
56.557400
 30
0.0
 10
-21.713797
 20
57.089170
 30
0.0
 10
-24.435122
 20
57.294230
 30
0.0
 10
-27.101265
 20
57.125450
 30
0.0
 10
-29.702151
 20
56.535720
 30
0.0
 10
-32.227702
 20
55.477890
 30
0.0
 10
-34.667844
 20
53.904860
 30
0.0
 10
-37.012500
 20
51.769490
 30
0.0
 10
-39.251594
 20
49.024660
 30
0.0
 10
-41.375050
 20
45.623240
 30
0.0
 10
-43.372792
 20
41.518120
 30
0.0
 10
-45.234744
 20
36.662160
 30
0.0
 10
-47.426926
 20
30.131530
 30
0.0
 10
-49.337074
 20
24.231720
 30
0.0
 10
-50.984589
 20
18.933810
 30
0.0
 10
-52.388872
 20
14.208910
 30
0.0
 10
-53.569324
 20
10.028110
 30
0.0
 10
-54.545344
 20
6.362500
 30
0.0
 10
-55.336334
 20
3.183180
 30
0.0
 10
-55.961694
 20
0.461240
 30
0.0
 10
-56.440825
 20
-1.832220
 30
0.0
 10
-56.793128
 20
-3.726100
 30
0.0
 10
-57.038002
 20
-5.249310
 30
0.0
 10
-57.194850
 20
-6.430760
 30
0.0
 10
-57.283070
 20
-7.299350
 30
0.0
 10
-57.322070
 20
-7.883980
 30
0.0
 10
-57.331270
 20
-8.213570
 30
0.0
 10
-57.329970
 20
-8.317010
 30
0.0
 10
-55.841689
 20
-8.340610
 30
0.0
 10
-54.353407
 20
-8.364210
 30
0.0
 10
-52.865126
 20
-8.387810
 30
0.0
 10
-51.376845
 20
-8.411410
 30
0.0
 10
-49.888564
 20
-8.435010
 30
0.0
 10
-48.400282
 20
-8.458610
 30
0.0
 10
-46.912001
 20
-8.482210
 30
0.0
 10
-45.423720
 20
-8.505810
 30
0.0
 10
-43.935439
 20
-8.529410
 30
0.0
 10
-42.447157
 20
-8.553010
 30
0.0
 10
-40.958876
 20
-8.576610
 30
0.0
 10
-39.470595
 20
-8.600210
 30
0.0
 10
-37.982314
 20
-8.623810
 30
0.0
 10
-36.494032
 20
-8.647410
 30
0.0
 10
-35.005751
 20
-8.671010
 30
0.0
  0
ENDSEC
  0
SECTION
  2
OBJECTS
  0
DICTIONARY
  5
C
330
0
100
AcDbDictionary
  3
ACAD_GROUP
350
D
  3
ACAD_MLINESTYLE
350
17
  0
DICTIONARY
  5
D
330
C
100
AcDbDictionary
  0
DICTIONARY
  5
1A
330
C
100
AcDbDictionary
  0
DICTIONARY
  5
17
330
C
100
AcDbDictionary
  3
STANDARD
350
18
  0
DICTIONARY
  5
19
330
C
100
AcDbDictionary
  0
ENDSEC
  0
EOF
