  0
SECTION
  2
HEADER
  9
$ACADVER
  1
AC1014
  9
$HANDSEED
  5
FFFF
  9
$MEASUREMENT
 70
     1
  0
ENDSEC
  0
SECTION
  2
TABLES
  0
TABLE
  2
VPORT
  5
8
330
0
100
AcDbSymbolTable
 70
     4
  0
VPORT
  5
2E
330
8
100
AcDbSymbolTableRecord
100
AcDbViewportTableRecord
  2
*ACTIVE
 70
     0
 10
0.0
 20
0.0
 11
1.0
 21
1.0
 12
210.0
 22
148.5
 13
0.0
 23
0.0
 14
10.0
 24
10.0
 15
10.0
 25
10.0
 16
0.0
 26
0.0
 36
1.0
 17
0.0
 27
0.0
 37
0.0
 40
341.0
 41
1.24
 42
50.0
 43
0.0
 44
0.0
 50
0.0
 51
0.0
 71
     0
 72
   100
 73
     1
 74
     3
 75
     0
 76
     0
 77
     0
 78
     0
  0
ENDTAB
  0
TABLE
  2
LTYPE
  5
5
330
0
100
AcDbSymbolTable
 70
     1
  0
LTYPE
  5
14
330
5
100
AcDbSymbolTableRecord
100
AcDbLinetypeTableRecord
  2
BYBLOCK
 70
     0
  3

 72
    65
 73
     0
 40
0.0
  0
LTYPE
  5
15
330
5
100
AcDbSymbolTableRecord
100
AcDbLinetypeTableRecord
  2
BYLAYER
 70
     0
  3

 72
    65
 73
     0
 40
0.0
  0
LTYPE
  5
16
330
5
100
AcDbSymbolTableRecord
100
AcDbLinetypeTableRecord
  2
CONTINUOUS
 70
     0
  3
Solid line
 72
    65
 73
     0
 40
0.0
  0
ENDTAB
  0
TABLE
  2
LAYER
  5
2
100
AcDbSymbolTable
 70
1
  0
LAYER
  5
50
100
AcDbSymbolTableRecord
100
AcDbLayerTableRecord
  2
0
 70
0
  6
CONTINUOUS
  0
ENDTAB
  0
TABLE
  2
STYLE
  5
3
330
0
100
AcDbSymbolTable
 70
     1
  0
STYLE
  5
11
330
3
100
AcDbSymbolTableRecord
100
AcDbTextStyleTableRecord
  2
STANDARD
 70
     0
 40
0.0
 41
1.0
 50
0.0
 71
     0
 42
2.5
  3
txt
  4

  0
ENDTAB
  0
TABLE
  2
VIEW
  5
6
330
0
100
AcDbSymbolTable
 70
     0
  0
ENDTAB
  0
TABLE
  2
UCS
  5
7
330
0
100
AcDbSymbolTable
 70
     0
  0
ENDTAB
  0
TABLE
  2
APPID
  5
9
330
0
100
AcDbSymbolTable
 70
     2
  0
APPID
  5
12
330
9
100
AcDbSymbolTableRecord
100
AcDbRegAppTableRecord
  2
ACAD
 70
     0
  0
ENDTAB
  0
TABLE
  2
DIMSTYLE
  5
A
330
0
100
AcDbSymbolTable
 70
     1
  0
DIMSTYLE
105
27
330
A
100
AcDbSymbolTableRecord
100
AcDbDimStyleTableRecord
  2
ISO-25
 70
     0
  3

  4

  5

  6

  7

 40
1.0
 41
2.5
 42
0.625
 43
3.75
 44
1.25
 45
0.0
 46
0.0
 47
0.0
 48
0.0
140
2.5
141
2.5
142
0.0
143
0.03937007874016
144
1.0
145
0.0
146
1.0
147
0.625
 71
     0
 72
     0
 73
     0
 74
     0
 75
     0
 76
     0
 77
     1
 78
     8
170
     0
171
     3
172
     1
173
     0
174
     0
175
     0
176
     0
177
     0
178
     0
270
     2
271
     2
272
     2
273
     2
274
     3
340
11
275
     0
280
     0
281
     0
282
     0
283
     0
284
     8
285
     0
286
     0
287
     3
288
     0
  0
ENDTAB
  0
TABLE
  2
BLOCK_RECORD
  5
1
330
0
100
AcDbSymbolTable
 70
     1
  0
BLOCK_RECORD
  5
1F
330
1
100
AcDbSymbolTableRecord
100
AcDbBlockTableRecord
  2
*MODEL_SPACE
  0
BLOCK_RECORD
  5
1B
330
1
100
AcDbSymbolTableRecord
100
AcDbBlockTableRecord
  2
*PAPER_SPACE
  0
ENDTAB
  0
ENDSEC
  0
SECTION
  2
BLOCKS
  0
BLOCK
  5
20
330
1F
100
AcDbEntity
  8
0
100
AcDbBlockBegin
  2
*MODEL_SPACE
 70
     0
 10
0.0
 20
0.0
 30
0.0
  3
*MODEL_SPACE
  1

  0
ENDBLK
  5
21
330
1F
100
AcDbEntity
  8
0
100
AcDbBlockEnd
  0
BLOCK
  5
1C
330
1B
100
AcDbEntity
 67
     1
  8
0
100
AcDbBlockBegin
  2
*PAPER_SPACE
  1

  0
ENDBLK
  5
1D
330
1B
100
AcDbEntity
 67
     1
  8
0
100
AcDbBlockEnd
  0
ENDSEC
  0
SECTION
  2
ENTITIES
  0
LWPOLYLINE
  5
100
100
AcDbEntity
  8
0
 62
7
100
AcDbPolyline
 90
928
 70
1
 10
0.046194
 20
7.628639
 30
0.0
 10
0.017156
 20
7.596407
 30
0.0
 10
-0.011882
 20
7.564173
 30
0.0
 10
-0.040918
 20
7.531941
 30
0.0
 10
-0.069956
 20
7.499707
 30
0.0
 10
-0.098994
 20
7.467476
 30
0.0
 10
-0.128032
 20
7.435241
 30
0.0
 10
-0.157067
 20
7.403007
 30
0.0
 10
-0.186105
 20
7.370776
 30
0.0
 10
-0.215143
 20
7.338542
 30
0.0
 10
-0.244181
 20
7.306310
 30
0.0
 10
-0.273217
 20
7.274076
 30
0.0
 10
-0.302255
 20
7.241844
 30
0.0
 10
-0.331293
 20
7.209610
 30
0.0
 10
-0.360331
 20
7.177379
 30
0.0
 10
-0.389366
 20
7.145144
 30
0.0
 10
-0.418404
 20
7.112910
 30
0.0
 10
-0.447442
 20
7.080679
 30
0.0
 10
-0.476480
 20
7.048444
 30
0.0
 10
-0.505516
 20
7.016213
 30
0.0
 10
-0.534554
 20
6.983979
 30
0.0
 10
-0.563592
 20
6.951747
 30
0.0
 10
-0.592627
 20
6.919513
 30
0.0
 10
-0.621665
 20
6.887279
 30
0.0
 10
-0.650703
 20
6.855047
 30
0.0
 10
-0.679741
 20
6.822813
 30
0.0
 10
-0.708776
 20
6.790582
 30
0.0
 10
-0.737814
 20
6.758347
 30
0.0
 10
-0.766852
 20
6.726116
 30
0.0
 10
-0.795890
 20
6.693882
 30
0.0
 10
-0.824926
 20
6.661650
 30
0.0
 10
-0.853964
 20
6.629416
 30
0.0
 10
-0.883002
 20
6.597182
 30
0.0
 10
-0.853059
 20
6.553134
 30
0.0
 10
-0.824296
 20
6.508599
 30
0.0
 10
-0.796697
 20
6.463649
 30
0.0
 10
-0.770266
 20
6.418347
 30
0.0
 10
-0.744945
 20
6.372765
 30
0.0
 10
-0.720762
 20
6.326973
 30
0.0
 10
-0.697690
 20
6.281036
 30
0.0
 10
-0.675704
 20
6.235025
 30
0.0
 10
-0.654775
 20
6.189009
 30
0.0
 10
-0.634905
 20
6.143053
 30
0.0
 10
-0.616093
 20
6.097228
 30
0.0
 10
-0.598313
 20
6.051603
 30
0.0
 10
-0.581538
 20
6.006245
 30
0.0
 10
-0.565769
 20
5.961224
 30
0.0
 10
-0.550979
 20
5.916607
 30
0.0
 10
-0.537168
 20
5.872464
 30
0.0
 10
-0.524309
 20
5.828863
 30
0.0
 10
-0.512376
 20
5.785871
 30
0.0
 10
-0.501370
 20
5.743559
 30
0.0
 10
-0.491262
 20
5.701996
 30
0.0
 10
-0.482055
 20
5.661247
 30
0.0
 10
-0.473721
 20
5.621382
 30
0.0
 10
-0.466259
 20
5.582470
 30
0.0
 10
-0.459645
 20
5.544579
 30
0.0
 10
-0.453877
 20
5.507778
 30
0.0
 10
-0.448929
 20
5.472136
 30
0.0
 10
-0.444775
 20
5.437722
 30
0.0
 10
-0.441415
 20
5.404604
 30
0.0
 10
-0.438769
 20
5.372846
 30
0.0
 10
-0.436917
 20
5.342525
 30
0.0
 10
-0.435859
 20
5.313701
 30
0.0
 10
-0.435594
 20
5.286449
 30
0.0
 10
-0.461603
 20
5.331187
 30
0.0
 10
-0.487770
 20
5.373965
 30
0.0
 10
-0.514096
 20
5.414859
 30
0.0
 10
-0.540560
 20
5.453944
 30
0.0
 10
-0.567156
 20
5.491295
 30
0.0
 10
-0.593884
 20
5.526984
 30
0.0
 10
-0.620736
 20
5.561092
 30
0.0
 10
-0.647708
 20
5.593686
 30
0.0
 10
-0.674793
 20
5.624846
 30
0.0
 10
-0.701985
 20
5.654643
 30
0.0
 10
-0.729279
 20
5.683155
 30
0.0
 10
-0.756666
 20
5.710454
 30
0.0
 10
-0.784146
 20
5.736622
 30
0.0
 10
-0.811707
 20
5.761731
 30
0.0
 10
-0.839346
 20
5.785834
 30
0.0
 10
-0.867058
 20
5.809038
 30
0.0
 10
-0.894837
 20
5.831395
 30
0.0
 10
-0.922674
 20
5.852985
 30
0.0
 10
-0.950566
 20
5.873888
 30
0.0
 10
-0.978509
 20
5.894181
 30
0.0
 10
-1.006491
 20
5.913945
 30
0.0
 10
-1.034513
 20
5.933234
 30
0.0
 10
-1.062564
 20
5.952125
 30
0.0
 10
-1.090642
 20
5.970699
 30
0.0
 10
-1.118740
 20
5.989034
 30
0.0
 10
-1.146850
 20
6.007211
 30
0.0
 10
-1.174967
 20
6.025309
 30
0.0
 10
-1.203087
 20
6.043380
 30
0.0
 10
-1.231204
 20
6.061504
 30
0.0
 10
-1.259308
 20
6.079760
 30
0.0
 10
-1.287399
 20
6.098228
 30
0.0
 10
-1.315469
 20
6.116987
 30
0.0
 10
-1.334175
 20
6.096217
 30
0.0
 10
-1.352881
 20
6.075447
 30
0.0
 10
-1.371587
 20
6.054677
 30
0.0
 10
-1.390293
 20
6.033908
 30
0.0
 10
-1.408999
 20
6.013138
 30
0.0
 10
-1.427705
 20
5.992368
 30
0.0
 10
-1.446411
 20
5.971598
 30
0.0
 10
-1.465117
 20
5.950828
 30
0.0
 10
-1.483823
 20
5.930059
 30
0.0
 10
-1.502529
 20
5.909289
 30
0.0
 10
-1.521235
 20
5.888519
 30
0.0
 10
-1.539941
 20
5.867749
 30
0.0
 10
-1.558647
 20
5.846979
 30
0.0
 10
-1.577353
 20
5.826210
 30
0.0
 10
-1.596059
 20
5.805440
 30
0.0
 10
-1.614765
 20
5.784670
 30
0.0
 10
-1.633471
 20
5.763900
 30
0.0
 10
-1.652177
 20
5.743131
 30
0.0
 10
-1.670883
 20
5.722361
 30
0.0
 10
-1.689589
 20
5.701591
 30
0.0
 10
-1.708296
 20
5.680821
 30
0.0
 10
-1.727002
 20
5.660051
 30
0.0
 10
-1.745708
 20
5.639282
 30
0.0
 10
-1.764414
 20
5.618512
 30
0.0
 10
-1.783120
 20
5.597742
 30
0.0
 10
-1.801826
 20
5.576972
 30
0.0
 10
-1.820532
 20
5.556202
 30
0.0
 10
-1.839238
 20
5.535433
 30
0.0
 10
-1.857944
 20
5.514663
 30
0.0
 10
-1.876650
 20
5.493893
 30
0.0
 10
-1.895356
 20
5.473123
 30
0.0
 10
-1.914062
 20
5.452353
 30
0.0
 10
-1.838685
 20
5.423903
 30
0.0
 10
-1.765189
 20
5.391581
 30
0.0
 10
-1.693611
 20
5.355508
 30
0.0
 10
-1.623981
 20
5.315797
 30
0.0
 10
-1.556335
 20
5.272572
 30
0.0
 10
-1.490707
 20
5.225947
 30
0.0
 10
-1.427128
 20
5.176046
 30
0.0
 10
-1.365631
 20
5.122984
 30
0.0
 10
-1.306253
 20
5.066879
 30
0.0
 10
-1.249024
 20
5.007851
 30
0.0
 10
-1.193980
 20
4.946020
 30
0.0
 10
-1.141151
 20
4.881504
 30
0.0
 10
-1.090575
 20
4.814419
 30
0.0
 10
-1.042284
 20
4.744887
 30
0.0
 10
-0.996307
 20
4.673023
 30
0.0
 10
-0.952685
 20
4.598948
 30
0.0
 10
-0.911445
 20
4.522782
 30
0.0
 10
-0.872625
 20
4.444643
 30
0.0
 10
-0.836255
 20
4.364646
 30
0.0
 10
-0.802373
 20
4.282914
 30
0.0
 10
-0.771006
 20
4.199562
 30
0.0
 10
-0.742193
 20
4.114710
 30
0.0
 10
-0.715973
 20
4.028480
 30
0.0
 10
-0.692372
 20
3.940987
 30
0.0
 10
-0.671417
 20
3.852349
 30
0.0
 10
-0.653135
 20
3.762687
 30
0.0
 10
-0.637577
 20
3.672118
 30
0.0
 10
-0.624771
 20
3.580762
 30
0.0
 10
-0.614770
 20
3.488735
 30
0.0
 10
-0.607573
 20
3.396160
 30
0.0
 10
-0.603234
 20
3.303151
 30
0.0
 10
-0.601911
 20
3.209830
 30
0.0
 10
-0.602440
 20
3.162779
 30
0.0
 10
-0.604028
 20
3.112175
 30
0.0
 10
-0.606938
 20
3.058358
 30
0.0
 10
-0.611251
 20
3.001669
 30
0.0
 10
-0.617151
 20
2.942452
 30
0.0
 10
-0.624771
 20
2.881043
 30
0.0
 10
-0.634243
 20
2.817786
 30
0.0
 10
-0.645753
 20
2.753019
 30
0.0
 10
-0.659405
 20
2.687085
 30
0.0
 10
-0.675386
 20
2.620322
 30
0.0
 10
-0.693827
 20
2.553076
 30
0.0
 10
-0.714888
 20
2.485681
 30
0.0
 10
-0.738701
 20
2.418482
 30
0.0
 10
-0.765426
 20
2.351818
 30
0.0
 10
-0.795213
 20
2.286029
 30
0.0
 10
-0.828209
 20
2.221458
 30
0.0
 10
-0.864563
 20
2.158442
 30
0.0
 10
-0.904425
 20
2.097326
 30
0.0
 10
-0.947941
 20
2.038448
 30
0.0
 10
-0.995265
 20
1.982150
 30
0.0
 10
-1.046541
 20
1.928773
 30
0.0
 10
-1.101918
 20
1.878653
 30
0.0
 10
-1.161550
 20
1.832136
 30
0.0
 10
-1.225584
 20
1.789562
 30
0.0
 10
-1.294167
 20
1.751272
 30
0.0
 10
-1.367449
 20
1.717604
 30
0.0
 10
-1.445580
 20
1.688899
 30
0.0
 10
-1.528707
 20
1.665510
 30
0.0
 10
-1.616983
 20
1.647756
 30
0.0
 10
-1.710552
 20
1.635982
 30
0.0
 10
-1.809565
 20
1.630532
 30
0.0
 10
-1.914173
 20
1.631855
 30
0.0
 10
-1.914173
 20
1.632006
 30
0.0
 10
-1.914173
 20
1.632154
 30
0.0
 10
-1.914173
 20
1.632305
 30
0.0
 10
-1.914173
 20
1.632455
 30
0.0
 10
-1.914173
 20
1.632604
 30
0.0
 10
-1.914173
 20
1.632754
 30
0.0
 10
-1.914173
 20
1.632905
 30
0.0
 10
-1.914173
 20
1.633053
 30
0.0
 10
-1.914173
 20
1.633204
 30
0.0
 10
-1.914173
 20
1.633355
 30
0.0
 10
-1.914173
 20
1.633506
 30
0.0
 10
-1.914173
 20
1.633654
 30
0.0
 10
-1.914173
 20
1.633805
 30
0.0
 10
-1.914173
 20
1.633956
 30
0.0
 10
-1.914173
 20
1.634104
 30
0.0
 10
-1.914173
 20
1.634255
 30
0.0
 10
-1.914173
 20
1.634405
 30
0.0
 10
-1.914173
 20
1.634554
 30
0.0
 10
-1.914173
 20
1.634704
 30
0.0
 10
-1.914173
 20
1.634855
 30
0.0
 10
-1.914173
 20
1.635003
 30
0.0
 10
-1.914173
 20
1.635154
 30
0.0
 10
-1.914173
 20
1.635305
 30
0.0
 10
-1.914173
 20
1.635456
 30
0.0
 10
-1.914173
 20
1.635604
 30
0.0
 10
-1.914173
 20
1.635755
 30
0.0
 10
-1.914173
 20
1.635906
 30
0.0
 10
-1.914173
 20
1.636054
 30
0.0
 10
-1.914173
 20
1.636205
 30
0.0
 10
-1.914173
 20
1.636355
 30
0.0
 10
-1.914173
 20
1.636503
 30
0.0
 10
-1.914173
 20
1.636654
 30
0.0
 10
-1.993262
 20
1.648587
 30
0.0
 10
-2.071926
 20
1.665547
 30
0.0
 10
-2.150041
 20
1.687401
 30
0.0
 10
-2.227487
 20
1.713981
 30
0.0
 10
-2.304142
 20
1.745152
 30
0.0
 10
-2.379882
 20
1.780768
 30
0.0
 10
-2.454582
 20
1.820680
 30
0.0
 10
-2.528120
 20
1.864749
 30
0.0
 10
-2.600373
 20
1.912826
 30
0.0
 10
-2.671220
 20
1.964769
 30
0.0
 10
-2.740538
 20
2.020430
 30
0.0
 10
-2.808203
 20
2.079665
 30
0.0
 10
-2.874089
 20
2.142329
 30
0.0
 10
-2.938081
 20
2.208276
 30
0.0
 10
-3.000050
 20
2.277364
 30
0.0
 10
-3.059872
 20
2.349442
 30
0.0
 10
-3.117429
 20
2.424372
 30
0.0
 10
-3.172595
 20
2.502003
 30
0.0
 10
-3.225247
 20
2.582193
 30
0.0
 10
-3.275264
 20
2.664796
 30
0.0
 10
-3.322524
 20
2.749666
 30
0.0
 10
-3.366900
 20
2.836661
 30
0.0
 10
-3.408273
 20
2.925633
 30
0.0
 10
-3.446515
 20
3.016438
 30
0.0
 10
-3.481509
 20
3.108931
 30
0.0
 10
-3.513132
 20
3.202966
 30
0.0
 10
-3.541255
 20
3.298399
 30
0.0
 10
-3.565755
 20
3.395083
 30
0.0
 10
-3.586525
 20
3.492876
 30
0.0
 10
-3.603432
 20
3.591631
 30
0.0
 10
-3.616344
 20
3.691202
 30
0.0
 10
-3.625154
 20
3.791445
 30
0.0
 10
-3.630314
 20
3.891590
 30
0.0
 10
-3.632430
 20
3.991539
 30
0.0
 10
-3.631636
 20
4.091265
 30
0.0
 10
-3.627826
 20
4.190743
 30
0.0
 10
-3.621106
 20
4.289944
 30
0.0
 10
-3.611528
 20
4.388842
 30
0.0
 10
-3.599119
 20
4.487407
 30
0.0
 10
-3.583932
 20
4.585618
 30
0.0
 10
-3.566020
 20
4.683443
 30
0.0
 10
-3.545409
 20
4.780857
 30
0.0
 10
-3.522152
 20
4.877829
 30
0.0
 10
-3.496276
 20
4.974339
 30
0.0
 10
-3.467830
 20
5.070353
 30
0.0
 10
-3.436861
 20
5.165847
 30
0.0
 10
-3.403409
 20
5.260795
 30
0.0
 10
-3.367516
 20
5.355167
 30
0.0
 10
-3.329223
 20
5.448938
 30
0.0
 10
-3.288575
 20
5.542079
 30
0.0
 10
-3.245612
 20
5.634567
 30
0.0
 10
-3.200376
 20
5.726369
 30
0.0
 10
-3.152910
 20
5.817463
 30
0.0
 10
-3.103256
 20
5.907818
 30
0.0
 10
-3.051458
 20
5.997408
 30
0.0
 10
-2.997555
 20
6.086210
 30
0.0
 10
-2.941590
 20
6.174192
 30
0.0
 10
-2.883609
 20
6.261328
 30
0.0
 10
-2.823649
 20
6.347592
 30
0.0
 10
-2.761755
 20
6.432955
 30
0.0
 10
-2.697969
 20
6.517391
 30
0.0
 10
-2.632332
 20
6.600875
 30
0.0
 10
-2.564887
 20
6.683375
 30
0.0
 10
-2.495677
 20
6.764869
 30
0.0
 10
-2.495762
 20
6.764869
 30
0.0
 10
-2.495844
 20
6.764869
 30
0.0
 10
-2.495928
 20
6.764869
 30
0.0
 10
-2.496010
 20
6.764869
 30
0.0
 10
-2.496095
 20
6.764869
 30
0.0
 10
-2.496177
 20
6.764869
 30
0.0
 10
-2.496262
 20
6.764869
 30
0.0
 10
-2.496344
 20
6.764869
 30
0.0
 10
-2.496428
 20
6.764869
 30
0.0
 10
-2.496510
 20
6.764869
 30
0.0
 10
-2.496595
 20
6.764869
 30
0.0
 10
-2.496677
 20
6.764869
 30
0.0
 10
-2.496762
 20
6.764869
 30
0.0
 10
-2.496844
 20
6.764869
 30
0.0
 10
-2.496928
 20
6.764869
 30
0.0
 10
-2.497010
 20
6.764869
 30
0.0
 10
-2.497095
 20
6.764869
 30
0.0
 10
-2.497177
 20
6.764869
 30
0.0
 10
-2.497262
 20
6.764869
 30
0.0
 10
-2.497344
 20
6.764869
 30
0.0
 10
-2.497429
 20
6.764869
 30
0.0
 10
-2.497511
 20
6.764869
 30
0.0
 10
-2.497595
 20
6.764869
 30
0.0
 10
-2.497677
 20
6.764869
 30
0.0
 10
-2.497762
 20
6.764869
 30
0.0
 10
-2.497844
 20
6.764869
 30
0.0
 10
-2.497929
 20
6.764869
 30
0.0
 10
-2.498011
 20
6.764869
 30
0.0
 10
-2.498095
 20
6.764869
 30
0.0
 10
-2.498177
 20
6.764869
 30
0.0
 10
-2.498262
 20
6.764869
 30
0.0
 10
-2.498344
 20
6.764869
 30
0.0
 10
-2.625254
 20
6.686778
 30
0.0
 10
-2.749637
 20
6.605029
 30
0.0
 10
-2.871420
 20
6.519696
 30
0.0
 10
-2.990530
 20
6.430851
 30
0.0
 10
-3.106894
 20
6.338567
 30
0.0
 10
-3.220434
 20
6.242918
 30
0.0
 10
-3.331080
 20
6.143977
 30
0.0
 10
-3.438758
 20
6.041813
 30
0.0
 10
-3.543390
 20
5.936507
 30
0.0
 10
-3.644905
 20
5.828125
 30
0.0
 10
-3.743230
 20
5.716744
 30
0.0
 10
-3.838287
 20
5.602436
 30
0.0
 10
-3.930004
 20
5.485273
 30
0.0
 10
-4.018309
 20
5.365329
 30
0.0
 10
-4.103127
 20
5.242676
 30
0.0
 10
-4.184383
 20
5.117388
 30
0.0
 10
-4.262004
 20
4.989536
 30
0.0
 10
-4.335912
 20
4.859197
 30
0.0
 10
-4.406040
 20
4.726443
 30
0.0
 10
-4.472308
 20
4.591344
 30
0.0
 10
-4.534643
 20
4.453975
 30
0.0
 10
-4.592976
 20
4.314410
 30
0.0
 10
-4.647226
 20
4.172720
 30
0.0
 10
-4.697325
 20
4.028977
 30
0.0
 10
-4.743193
 20
3.883258
 30
0.0
 10
-4.784762
 20
3.735636
 30
0.0
 10
-4.821955
 20
3.586178
 30
0.0
 10
-4.854697
 20
3.434964
 30
0.0
 10
-4.882915
 20
3.282064
 30
0.0
 10
-4.906542
 20
3.127550
 30
0.0
 10
-4.925486
 20
2.971496
 30
0.0
 10
-4.939694
 20
2.813976
 30
0.0
 10
-4.939959
 20
2.810087
 30
0.0
 10
-4.940223
 20
2.806197
 30
0.0
 10
-4.940488
 20
2.802308
 30
0.0
 10
-4.940752
 20
2.798419
 30
0.0
 10
-4.941017
 20
2.794529
 30
0.0
 10
-4.941282
 20
2.790640
 30
0.0
 10
-4.941546
 20
2.786750
 30
0.0
 10
-4.941811
 20
2.782861
 30
0.0
 10
-4.942075
 20
2.778972
 30
0.0
 10
-4.942337
 20
2.775082
 30
0.0
 10
-4.942597
 20
2.771193
 30
0.0
 10
-4.942853
 20
2.767304
 30
0.0
 10
-4.943107
 20
2.763414
 30
0.0
 10
-4.943359
 20
2.759525
 30
0.0
 10
-4.943607
 20
2.755635
 30
0.0
 10
-4.943851
 20
2.751746
 30
0.0
 10
-4.944094
 20
2.747857
 30
0.0
 10
-4.944332
 20
2.743967
 30
0.0
 10
-4.944570
 20
2.740078
 30
0.0
 10
-4.944803
 20
2.736189
 30
0.0
 10
-4.945033
 20
2.732299
 30
0.0
 10
-4.945261
 20
2.728410
 30
0.0
 10
-4.945486
 20
2.724520
 30
0.0
 10
-4.945708
 20
2.720631
 30
0.0
 10
-4.945925
 20
2.716742
 30
0.0
 10
-4.946139
 20
2.712852
 30
0.0
 10
-4.946354
 20
2.708963
 30
0.0
 10
-4.946563
 20
2.705074
 30
0.0
 10
-4.946769
 20
2.701158
 30
0.0
 10
-4.946973
 20
2.697268
 30
0.0
 10
-4.947174
 20
2.693353
 30
0.0
 10
-4.947372
 20
2.689463
 30
0.0
 10
-4.947375
 20
2.689381
 30
0.0
 10
-4.947378
 20
2.689296
 30
0.0
 10
-4.947380
 20
2.689214
 30
0.0
 10
-4.947383
 20
2.689130
 30
0.0
 10
-4.947383
 20
2.689048
 30
0.0
 10
-4.947386
 20
2.688963
 30
0.0
 10
-4.947386
 20
2.688881
 30
0.0
 10
-4.947386
 20
2.688796
 30
0.0
 10
-4.947383
 20
2.688714
 30
0.0
 10
-4.947383
 20
2.688630
 30
0.0
 10
-4.947380
 20
2.688548
 30
0.0
 10
-4.947380
 20
2.688463
 30
0.0
 10
-4.947378
 20
2.688381
 30
0.0
 10
-4.947375
 20
2.688296
 30
0.0
 10
-4.947375
 20
2.688214
 30
0.0
 10
-4.947372
 20
2.688130
 30
0.0
 10
-4.947370
 20
2.688048
 30
0.0
 10
-4.947367
 20
2.687963
 30
0.0
 10
-4.947367
 20
2.687881
 30
0.0
 10
-4.947364
 20
2.687796
 30
0.0
 10
-4.947362
 20
2.687714
 30
0.0
 10
-4.947362
 20
2.687630
 30
0.0
 10
-4.947359
 20
2.687548
 30
0.0
 10
-4.947359
 20
2.687463
 30
0.0
 10
-4.947359
 20
2.687381
 30
0.0
 10
-4.947359
 20
2.687296
 30
0.0
 10
-4.947359
 20
2.687214
 30
0.0
 10
-4.947362
 20
2.687130
 30
0.0
 10
-4.947362
 20
2.687047
 30
0.0
 10
-4.947364
 20
2.686963
 30
0.0
 10
-4.947367
 20
2.686881
 30
0.0
 10
-4.947372
 20
2.686796
 30
0.0
 10
-4.947568
 20
2.682854
 30
0.0
 10
-4.947764
 20
2.678912
 30
0.0
 10
-4.947960
 20
2.674943
 30
0.0
 10
-4.948153
 20
2.670974
 30
0.0
 10
-4.948346
 20
2.667005
 30
0.0
 10
-4.948539
 20
2.663037
 30
0.0
 10
-4.948730
 20
2.659068
 30
0.0
 10
-4.948917
 20
2.655099
 30
0.0
 10
-4.949103
 20
2.651130
 30
0.0
 10
-4.949288
 20
2.647162
 30
0.0
 10
-4.949473
 20
2.643193
 30
0.0
 10
-4.949653
 20
2.639224
 30
0.0
 10
-4.949833
 20
2.635255
 30
0.0
 10
-4.950008
 20
2.631287
 30
0.0
 10
-4.950182
 20
2.627318
 30
0.0
 10
-4.950352
 20
2.623349
 30
0.0
 10
-4.950521
 20
2.619380
 30
0.0
 10
-4.950688
 20
2.615412
 30
0.0
 10
-4.950854
 20
2.611416
 30
0.0
 10
-4.951002
 20
2.607448
 30
0.0
 10
-4.951153
 20
2.603479
 30
0.0
 10
-4.951304
 20
2.599510
 30
0.0
 10
-4.951455
 20
2.595541
 30
0.0
 10
-4.951603
 20
2.591546
 30
0.0
 10
-4.951738
 20
2.587577
 30
0.0
 10
-4.951870
 20
2.583609
 30
0.0
 10
-4.952003
 20
2.579640
 30
0.0
 10
-4.952119
 20
2.575671
 30
0.0
 10
-4.952238
 20
2.571702
 30
0.0
 10
-4.952354
 20
2.567734
 30
0.0
 10
-4.952452
 20
2.563765
 30
0.0
 10
-4.952553
 20
2.559796
 30
0.0
 10
-4.952653
 20
2.555748
 30
0.0
 10
-4.952754
 20
2.551700
 30
0.0
 10
-4.952854
 20
2.547652
 30
0.0
 10
-4.952936
 20
2.543604
 30
0.0
 10
-4.953021
 20
2.539556
 30
0.0
 10
-4.953103
 20
2.535481
 30
0.0
 10
-4.953188
 20
2.531406
 30
0.0
 10
-4.953270
 20
2.527332
 30
0.0
 10
-4.953336
 20
2.523257
 30
0.0
 10
-4.953405
 20
2.519183
 30
0.0
 10
-4.953471
 20
2.515108
 30
0.0
 10
-4.953537
 20
2.511033
 30
0.0
 10
-4.953603
 20
2.506959
 30
0.0
 10
-4.953654
 20
2.502884
 30
0.0
 10
-4.953704
 20
2.498810
 30
0.0
 10
-4.953754
 20
2.494735
 30
0.0
 10
-4.953804
 20
2.490661
 30
0.0
 10
-4.953855
 20
2.486586
 30
0.0
 10
-4.953886
 20
2.482511
 30
0.0
 10
-4.953921
 20
2.478437
 30
0.0
 10
-4.953952
 20
2.474362
 30
0.0
 10
-4.953987
 20
2.470288
 30
0.0
 10
-4.954021
 20
2.466213
 30
0.0
 10
-4.954037
 20
2.462138
 30
0.0
 10
-4.954053
 20
2.458064
 30
0.0
 10
-4.954069
 20
2.453989
 30
0.0
 10
-4.954085
 20
2.449915
 30
0.0
 10
-4.954098
 20
2.445840
 30
0.0
 10
-4.954106
 20
2.441766
 30
0.0
 10
-4.954114
 20
2.437691
 30
0.0
 10
-4.954117
 20
2.433616
 30
0.0
 10
-4.954119
 20
2.429542
 30
0.0
 10
-4.947610
 20
2.172367
 30
0.0
 10
-4.928296
 20
1.918555
 30
0.0
 10
-4.896482
 20
1.668418
 30
0.0
 10
-4.852487
 20
1.422276
 30
0.0
 10
-4.796626
 20
1.180436
 30
0.0
 10
-4.729215
 20
0.943221
 30
0.0
 10
-4.650568
 20
0.710943
 30
0.0
 10
-4.561001
 20
0.483915
 30
0.0
 10
-4.460830
 20
0.262453
 30
0.0
 10
-4.350366
 20
0.046874
 30
0.0
 10
-4.229928
 20
-0.162510
 30
0.0
 10
-4.099830
 20
-0.365382
 30
0.0
 10
-3.960387
 20
-0.561427
 30
0.0
 10
-3.811910
 20
-0.750335
 30
0.0
 10
-3.654719
 20
-0.931783
 30
0.0
 10
-3.489127
 20
-1.105461
 30
0.0
 10
-3.315449
 20
-1.271053
 30
0.0
 10
-3.134000
 20
-1.428242
 30
0.0
 10
-2.945096
 20
-1.576718
 30
0.0
 10
-2.749050
 20
-1.716162
 30
0.0
 10
-2.546178
 20
-1.846262
 30
0.0
 10
-2.336795
 20
-1.966701
 30
0.0
 10
-2.121215
 20
-2.077162
 30
0.0
 10
-1.899753
 20
-2.177336
 30
0.0
 10
-1.672725
 20
-2.266900
 30
0.0
 10
-1.440445
 20
-2.345547
 30
0.0
 10
-1.203230
 20
-2.412958
 30
0.0
 10
-0.961393
 20
-2.468819
 30
0.0
 10
-0.715248
 20
-2.512814
 30
0.0
 10
-0.465114
 20
-2.544628
 30
0.0
 10
-0.211302
 20
-2.563942
 30
0.0
 10
0.045873
 20
-2.570451
 30
0.0
 10
0.303046
 20
-2.563942
 30
0.0
 10
0.556858
 20
-2.544628
 30
0.0
 10
0.806995
 20
-2.512814
 30
0.0
 10
1.053140
 20
-2.468819
 30
0.0
 10
1.294977
 20
-2.412958
 30
0.0
 10
1.532192
 20
-2.345547
 30
0.0
 10
1.764469
 20
-2.266900
 30
0.0
 10
1.991498
 20
-2.177336
 30
0.0
 10
2.212959
 20
-2.077162
 30
0.0
 10
2.428539
 20
-1.966701
 30
0.0
 10
2.637922
 20
-1.846262
 30
0.0
 10
2.840794
 20
-1.716162
 30
0.0
 10
3.036840
 20
-1.576718
 30
0.0
 10
3.225747
 20
-1.428242
 30
0.0
 10
3.407196
 20
-1.271053
 30
0.0
 10
3.580873
 20
-1.105461
 30
0.0
 10
3.746466
 20
-0.931783
 30
0.0
 10
3.903657
 20
-0.750335
 30
0.0
 10
4.052131
 20
-0.561427
 30
0.0
 10
4.191577
 20
-0.365382
 30
0.0
 10
4.321675
 20
-0.162510
 30
0.0
 10
4.442113
 20
0.046874
 30
0.0
 10
4.552577
 20
0.262453
 30
0.0
 10
4.652748
 20
0.483915
 30
0.0
 10
4.742315
 20
0.710943
 30
0.0
 10
4.820960
 20
0.943221
 30
0.0
 10
4.888373
 20
1.180436
 30
0.0
 10
4.944232
 20
1.422276
 30
0.0
 10
4.988227
 20
1.668418
 30
0.0
 10
5.020043
 20
1.918555
 30
0.0
 10
5.039357
 20
2.172367
 30
0.0
 10
5.045866
 20
2.429542
 30
0.0
 10
5.045850
 20
2.441660
 30
0.0
 10
5.045800
 20
2.453778
 30
0.0
 10
5.045734
 20
2.465896
 30
0.0
 10
5.045633
 20
2.478013
 30
0.0
 10
5.045501
 20
2.490105
 30
0.0
 10
5.045350
 20
2.502196
 30
0.0
 10
5.045165
 20
2.514288
 30
0.0
 10
5.044953
 20
2.526379
 30
0.0
 10
5.044710
 20
2.538444
 30
0.0
 10
5.044445
 20
2.550509
 30
0.0
 10
5.044181
 20
2.562574
 30
0.0
 10
5.043916
 20
2.574639
 30
0.0
 10
5.043652
 20
2.586678
 30
0.0
 10
5.043387
 20
2.598716
 30
0.0
 10
5.042858
 20
2.610755
 30
0.0
 10
5.042329
 20
2.622793
 30
0.0
 10
5.041799
 20
2.634806
 30
0.0
 10
5.041270
 20
2.646818
 30
0.0
 10
5.040741
 20
2.658830
 30
0.0
 10
5.040212
 20
2.670815
 30
0.0
 10
5.039683
 20
2.682801
 30
0.0
 10
5.039154
 20
2.694787
 30
0.0
 10
5.038624
 20
2.706772
 30
0.0
 10
5.037831
 20
2.718731
 30
0.0
 10
5.037037
 20
2.730691
 30
0.0
 10
5.036243
 20
2.742650
 30
0.0
 10
5.035449
 20
2.754582
 30
0.0
 10
5.034656
 20
2.766515
 30
0.0
 10
5.033862
 20
2.778448
 30
0.0
 10
5.033068
 20
2.790381
 30
0.0
 10
5.032274
 20
2.802287
 30
0.0
 10
5.031481
 20
2.814193
 30
0.0
 10
5.017273
 20
2.971713
 30
0.0
 10
4.998328
 20
3.127767
 30
0.0
 10
4.974701
 20
3.282278
 30
0.0
 10
4.946483
 20
3.435181
 30
0.0
 10
4.913741
 20
3.586395
 30
0.0
 10
4.876551
 20
3.735851
 30
0.0
 10
4.834983
 20
3.883475
 30
0.0
 10
4.789112
 20
4.029194
 30
0.0
 10
4.739016
 20
4.172934
 30
0.0
 10
4.684765
 20
4.314624
 30
0.0
 10
4.626433
 20
4.454192
 30
0.0
 10
4.564097
 20
4.591561
 30
0.0
 10
4.497827
 20
4.726657
 30
0.0
 10
4.427702
 20
4.859414
 30
0.0
 10
4.353793
 20
4.989753
 30
0.0
 10
4.276172
 20
5.117603
 30
0.0
 10
4.194916
 20
5.242891
 30
0.0
 10
4.110098
 20
5.365544
 30
0.0
 10
4.021794
 20
5.485487
 30
0.0
 10
3.930076
 20
5.602653
 30
0.0
 10
3.835019
 20
5.716961
 30
0.0
 10
3.736695
 20
5.828342
 30
0.0
 10
3.635179
 20
5.936723
 30
0.0
 10
3.530547
 20
6.042030
 30
0.0
 10
3.422870
 20
6.144191
 30
0.0
 10
3.312224
 20
6.243132
 30
0.0
 10
3.198683
 20
6.338782
 30
0.0
 10
3.082319
 20
6.431066
 30
0.0
 10
2.963209
 20
6.519910
 30
0.0
 10
2.841427
 20
6.605244
 30
0.0
 10
2.717043
 20
6.686995
 30
0.0
 10
2.590133
 20
6.765084
 30
0.0
 10
2.590049
 20
6.765084
 30
0.0
 10
2.589967
 20
6.765084
 30
0.0
 10
2.589882
 20
6.765084
 30
0.0
 10
2.589800
 20
6.765084
 30
0.0
 10
2.589715
 20
6.765084
 30
0.0
 10
2.589633
 20
6.765084
 30
0.0
 10
2.589551
 20
6.765084
 30
0.0
 10
2.589467
 20
6.765084
 30
0.0
 10
2.589384
 20
6.765084
 30
0.0
 10
2.589300
 20
6.765084
 30
0.0
 10
2.589218
 20
6.765084
 30
0.0
 10
2.589133
 20
6.765084
 30
0.0
 10
2.589051
 20
6.765084
 30
0.0
 10
2.588966
 20
6.765084
 30
0.0
 10
2.588884
 20
6.765084
 30
0.0
 10
2.588800
 20
6.765084
 30
0.0
 10
2.588718
 20
6.765084
 30
0.0
 10
2.588633
 20
6.765084
 30
0.0
 10
2.588551
 20
6.765084
 30
0.0
 10
2.588466
 20
6.765084
 30
0.0
 10
2.588384
 20
6.765084
 30
0.0
 10
2.588300
 20
6.765084
 30
0.0
 10
2.588218
 20
6.765084
 30
0.0
 10
2.588133
 20
6.765084
 30
0.0
 10
2.588051
 20
6.765084
 30
0.0
 10
2.587966
 20
6.765084
 30
0.0
 10
2.587884
 20
6.765084
 30
0.0
 10
2.587800
 20
6.765084
 30
0.0
 10
2.587718
 20
6.765084
 30
0.0
 10
2.587633
 20
6.765084
 30
0.0
 10
2.587551
 20
6.765084
 30
0.0
 10
2.587466
 20
6.765084
 30
0.0
 10
2.656676
 20
6.683592
 30
0.0
 10
2.724121
 20
6.601090
 30
0.0
 10
2.789759
 20
6.517608
 30
0.0
 10
2.853544
 20
6.433172
 30
0.0
 10
2.915438
 20
6.347807
 30
0.0
 10
2.975398
 20
6.261545
 30
0.0
 10
3.033382
 20
6.174407
 30
0.0
 10
3.089344
 20
6.086425
 30
0.0
 10
3.143247
 20
5.997625
 30
0.0
 10
3.195045
 20
5.908035
 30
0.0
 10
3.244699
 20
5.817677
 30
0.0
 10
3.292165
 20
5.726583
 30
0.0
 10
3.337401
 20
5.634781
 30
0.0
 10
3.380364
 20
5.542296
 30
0.0
 10
3.421012
 20
5.449152
 30
0.0
 10
3.459305
 20
5.355381
 30
0.0
 10
3.495199
 20
5.261009
 30
0.0
 10
3.528650
 20
5.166064
 30
0.0
 10
3.559620
 20
5.070568
 30
0.0
 10
3.588065
 20
4.974553
 30
0.0
 10
3.613941
 20
4.878046
 30
0.0
 10
3.637198
 20
4.781071
 30
0.0
 10
3.657809
 20
4.683659
 30
0.0
 10
3.675721
 20
4.585835
 30
0.0
 10
3.690908
 20
4.487624
 30
0.0
 10
3.703317
 20
4.389057
 30
0.0
 10
3.712895
 20
4.290161
 30
0.0
 10
3.719616
 20
4.190958
 30
0.0
 10
3.723426
 20
4.091480
 30
0.0
 10
3.724219
 20
3.991753
 30
0.0
 10
3.722103
 20
3.891807
 30
0.0
 10
3.716943
 20
3.791662
 30
0.0
 10
3.708133
 20
3.691419
 30
0.0
 10
3.695221
 20
3.591846
 30
0.0
 10
3.678314
 20
3.493093
 30
0.0
 10
3.657544
 20
3.395300
 30
0.0
 10
3.633044
 20
3.298613
 30
0.0
 10
3.604919
 20
3.203181
 30
0.0
 10
3.573298
 20
3.109148
 30
0.0
 10
3.538305
 20
3.016655
 30
0.0
 10
3.500059
 20
2.925850
 30
0.0
 10
3.458686
 20
2.836876
 30
0.0
 10
3.414310
 20
2.749883
 30
0.0
 10
3.367053
 20
2.665010
 30
0.0
 10
3.317036
 20
2.582407
 30
0.0
 10
3.264382
 20
2.502218
 30
0.0
 10
3.209216
 20
2.424586
 30
0.0
 10
3.151658
 20
2.349659
 30
0.0
 10
3.091836
 20
2.277578
 30
0.0
 10
3.029868
 20
2.208493
 30
0.0
 10
2.965879
 20
2.142546
 30
0.0
 10
2.899989
 20
2.079882
 30
0.0
 10
2.832325
 20
2.020647
 30
0.0
 10
2.763009
 20
1.964984
 30
0.0
 10
2.692162
 20
1.913043
 30
0.0
 10
2.619907
 20
1.864966
 30
0.0
 10
2.546369
 20
1.820897
 30
0.0
 10
2.471669
 20
1.780982
 30
0.0
 10
2.395929
 20
1.745369
 30
0.0
 10
2.319277
 20
1.714198
 30
0.0
 10
2.241830
 20
1.687618
 30
0.0
 10
2.163712
 20
1.665764
 30
0.0
 10
2.085049
 20
1.648804
 30
0.0
 10
2.005962
 20
1.636871
 30
0.0
 10
2.005962
 20
1.636720
 30
0.0
 10
2.005962
 20
1.636570
 30
0.0
 10
2.005962
 20
1.636421
 30
0.0
 10
2.005962
 20
1.636271
 30
0.0
 10
2.005962
 20
1.636120
 30
0.0
 10
2.005962
 20
1.635969
 30
0.0
 10
2.005962
 20
1.635821
 30
0.0
 10
2.005962
 20
1.635670
 30
0.0
 10
2.005962
 20
1.635519
 30
0.0
 10
2.005962
 20
1.635371
 30
0.0
 10
2.005962
 20
1.635220
 30
0.0
 10
2.005962
 20
1.635069
 30
0.0
 10
2.005962
 20
1.634921
 30
0.0
 10
2.005962
 20
1.634770
 30
0.0
 10
2.005962
 20
1.634620
 30
0.0
 10
2.005962
 20
1.634471
 30
0.0
 10
2.005962
 20
1.634321
 30
0.0
 10
2.005962
 20
1.634170
 30
0.0
 10
2.005962
 20
1.634019
 30
0.0
 10
2.005962
 20
1.633871
 30
0.0
 10
2.005962
 20
1.633720
 30
0.0
 10
2.005962
 20
1.633569
 30
0.0
 10
2.005962
 20
1.633421
 30
0.0
 10
2.005962
 20
1.633270
 30
0.0
 10
2.005962
 20
1.633119
 30
0.0
 10
2.005962
 20
1.632971
 30
0.0
 10
2.005962
 20
1.632820
 30
0.0
 10
2.005962
 20
1.632670
 30
0.0
 10
2.005962
 20
1.632522
 30
0.0
 10
2.005962
 20
1.632371
 30
0.0
 10
2.005962
 20
1.632220
 30
0.0
 10
2.005962
 20
1.632069
 30
0.0
 10
1.901354
 20
1.630746
 30
0.0
 10
1.802339
 20
1.636197
 30
0.0
 10
1.708769
 20
1.647971
 30
0.0
 10
1.620496
 20
1.665724
 30
0.0
 10
1.537367
 20
1.689113
 30
0.0
 10
1.459235
 20
1.717818
 30
0.0
 10
1.385954
 20
1.751486
 30
0.0
 10
1.317371
 20
1.789779
 30
0.0
 10
1.253339
 20
1.832353
 30
0.0
 10
1.193707
 20
1.878870
 30
0.0
 10
1.138327
 20
1.928987
 30
0.0
 10
1.087051
 20
1.982367
 30
0.0
 10
1.039730
 20
2.038665
 30
0.0
 10
0.996212
 20
2.097543
 30
0.0
 10
0.956352
 20
2.158659
 30
0.0
 10
0.919999
 20
2.221672
 30
0.0
 10
0.887002
 20
2.286243
 30
0.0
 10
0.857213
 20
2.352032
 30
0.0
 10
0.830487
 20
2.418696
 30
0.0
 10
0.806675
 20
2.485898
 30
0.0
 10
0.785614
 20
2.553290
 30
0.0
 10
0.767173
 20
2.620539
 30
0.0
 10
0.751192
 20
2.687301
 30
0.0
 10
0.737539
 20
2.753236
 30
0.0
 10
0.726030
 20
2.818000
 30
0.0
 10
0.716558
 20
2.881260
 30
0.0
 10
0.708938
 20
2.942667
 30
0.0
 10
0.703038
 20
3.001886
 30
0.0
 10
0.698725
 20
3.058573
 30
0.0
 10
0.695814
 20
3.112389
 30
0.0
 10
0.694227
 20
3.162993
 30
0.0
 10
0.693698
 20
3.210047
 30
0.0
 10
0.695021
 20
3.303368
 30
0.0
 10
0.699360
 20
3.396374
 30
0.0
 10
0.706557
 20
3.488952
 30
0.0
 10
0.716558
 20
3.580977
 30
0.0
 10
0.729364
 20
3.672335
 30
0.0
 10
0.744921
 20
3.762902
 30
0.0
 10
0.763204
 20
3.852564
 30
0.0
 10
0.784159
 20
3.941202
 30
0.0
 10
0.807760
 20
4.028697
 30
0.0
 10
0.833980
 20
4.114927
 30
0.0
 10
0.862793
 20
4.199776
 30
0.0
 10
0.894159
 20
4.283128
 30
0.0
 10
0.928045
 20
4.364860
 30
0.0
 10
0.964412
 20
4.444857
 30
0.0
 10
1.003234
 20
4.522999
 30
0.0
 10
1.044472
 20
4.599165
 30
0.0
 10
1.088096
 20
4.673240
 30
0.0
 10
1.134070
 20
4.745101
 30
0.0
 10
1.182362
 20
4.814634
 30
0.0
 10
1.232940
 20
4.881719
 30
0.0
 10
1.285767
 20
4.946237
 30
0.0
 10
1.340810
 20
5.008068
 30
0.0
 10
1.398040
 20
5.067094
 30
0.0
 10
1.457420
 20
5.123199
 30
0.0
 10
1.518915
 20
5.176261
 30
0.0
 10
1.582494
 20
5.226164
 30
0.0
 10
1.648124
 20
5.272786
 30
0.0
 10
1.715770
 20
5.316014
 30
0.0
 10
1.785400
 20
5.355722
 30
0.0
 10
1.856978
 20
5.391798
 30
0.0
 10
1.930474
 20
5.424120
 30
0.0
 10
2.005851
 20
5.452568
 30
0.0
 10
1.987145
 20
5.473338
 30
0.0
 10
1.968439
 20
5.494107
 30
0.0
 10
1.949733
 20
5.514877
 30
0.0
 10
1.931027
 20
5.535647
 30
0.0
 10
1.912321
 20
5.556417
 30
0.0
 10
1.893615
 20
5.577186
 30
0.0
 10
1.874909
 20
5.597956
 30
0.0
 10
1.856203
 20
5.618726
 30
0.0
 10
1.837497
 20
5.639496
 30
0.0
 10
1.818791
 20
5.660266
 30
0.0
 10
1.800085
 20
5.681035
 30
0.0
 10
1.781379
 20
5.701805
 30
0.0
 10
1.762673
 20
5.722575
 30
0.0
 10
1.743967
 20
5.743345
 30
0.0
 10
1.725261
 20
5.764115
 30
0.0
 10
1.706555
 20
5.784884
 30
0.0
 10
1.687849
 20
5.805654
 30
0.0
 10
1.669142
 20
5.826424
 30
0.0
 10
1.650436
 20
5.847194
 30
0.0
 10
1.631730
 20
5.867964
 30
0.0
 10
1.613024
 20
5.888733
 30
0.0
 10
1.594318
 20
5.909503
 30
0.0
 10
1.575612
 20
5.930273
 30
0.0
 10
1.556906
 20
5.951043
 30
0.0
 10
1.538200
 20
5.971813
 30
0.0
 10
1.519494
 20
5.992582
 30
0.0
 10
1.500788
 20
6.013352
 30
0.0
 10
1.482082
 20
6.034122
 30
0.0
 10
1.463376
 20
6.054892
 30
0.0
 10
1.444670
 20
6.075661
 30
0.0
 10
1.425964
 20
6.096431
 30
0.0
 10
1.407258
 20
6.117201
 30
0.0
 10
1.379191
 20
6.098442
 30
0.0
 10
1.351100
 20
6.079974
 30
0.0
 10
1.322993
 20
6.061718
 30
0.0
 10
1.294876
 20
6.043594
 30
0.0
 10
1.266756
 20
6.025523
 30
0.0
 10
1.238639
 20
6.007425
 30
0.0
 10
1.210530
 20
5.989249
 30
0.0
 10
1.182431
 20
5.970913
 30
0.0
 10
1.154353
 20
5.952339
 30
0.0
 10
1.126302
 20
5.933448
 30
0.0
 10
1.098280
 20
5.914160
 30
0.0
 10
1.070298
 20
5.894395
 30
0.0
 10
1.042355
 20
5.874102
 30
0.0
 10
1.014463
 20
5.853200
 30
0.0
 10
0.986626
 20
5.831610
 30
0.0
 10
0.958847
 20
5.809253
 30
0.0
 10
0.931135
 20
5.786049
 30
0.0
 10
0.903497
 20
5.761945
 30
0.0
 10
0.875935
 20
5.736836
 30
0.0
 10
0.848455
 20
5.710669
 30
0.0
 10
0.821068
 20
5.683369
 30
0.0
 10
0.793774
 20
5.654858
 30
0.0
 10
0.766583
 20
5.625060
 30
0.0
 10
0.739497
 20
5.593903
 30
0.0
 10
0.712526
 20
5.561306
 30
0.0
 10
0.685673
 20
5.527201
 30
0.0
 10
0.658945
 20
5.491512
 30
0.0
 10
0.632349
 20
5.454161
 30
0.0
 10
0.605885
 20
5.415076
 30
0.0
 10
0.579559
 20
5.374180
 30
0.0
 10
0.553392
 20
5.331402
 30
0.0
 10
0.527383
 20
5.286666
 30
0.0
 10
0.527648
 20
5.313918
 30
0.0
 10
0.528706
 20
5.342739
 30
0.0
 10
0.530558
 20
5.373063
 30
0.0
 10
0.533204
 20
5.404818
 30
0.0
 10
0.536564
 20
5.437939
 30
0.0
 10
0.540718
 20
5.472353
 30
0.0
 10
0.545666
 20
5.507995
 30
0.0
 10
0.551434
 20
5.544796
 30
0.0
 10
0.558049
 20
5.582687
 30
0.0
 10
0.565510
 20
5.621597
 30
0.0
 10
0.573844
 20
5.661462
 30
0.0
 10
0.583052
 20
5.702210
 30
0.0
 10
0.593159
 20
5.743776
 30
0.0
 10
0.604165
 20
5.786088
 30
0.0
 10
0.616098
 20
5.829080
 30
0.0
 10
0.628957
 20
5.872681
 30
0.0
 10
0.642768
 20
5.916824
 30
0.0
 10
0.657558
 20
5.961441
 30
0.0
 10
0.673328
 20
6.006462
 30
0.0
 10
0.690102
 20
6.051820
 30
0.0
 10
0.707882
 20
6.097445
 30
0.0
 10
0.726694
 20
6.143268
 30
0.0
 10
0.746564
 20
6.189223
 30
0.0
 10
0.767493
 20
6.235242
 30
0.0
 10
0.789480
 20
6.281253
 30
0.0
 10
0.812578
 20
6.327188
 30
0.0
 10
0.836761
 20
6.372982
 30
0.0
 10
0.862081
 20
6.418564
 30
0.0
 10
0.888540
 20
6.463863
 30
0.0
 10
0.916138
 20
6.508816
 30
0.0
 10
0.944901
 20
6.553351
 30
0.0
 10
0.974844
 20
6.597399
 30
0.0
 10
0.945806
 20
6.629633
 30
0.0
 10
0.916768
 20
6.661864
 30
0.0
 10
0.887733
 20
6.694099
 30
0.0
 10
0.858695
 20
6.726330
 30
0.0
 10
0.829657
 20
6.758564
 30
0.0
 10
0.800621
 20
6.790796
 30
0.0
 10
0.771583
 20
6.823030
 30
0.0
 10
0.742545
 20
6.855262
 30
0.0
 10
0.713507
 20
6.887496
 30
0.0
 10
0.684472
 20
6.919730
 30
0.0
 10
0.655434
 20
6.951961
 30
0.0
 10
0.626396
 20
6.984196
 30
0.0
 10
0.597358
 20
7.016427
 30
0.0
 10
0.568322
 20
7.048661
 30
0.0
 10
0.539284
 20
7.080893
 30
0.0
 10
0.510246
 20
7.113127
 30
0.0
 10
0.481211
 20
7.145361
 30
0.0
 10
0.452173
 20
7.177593
 30
0.0
 10
0.423135
 20
7.209827
 30
0.0
 10
0.394097
 20
7.242059
 30
0.0
 10
0.365062
 20
7.274293
 30
0.0
 10
0.336023
 20
7.306524
 30
0.0
 10
0.306985
 20
7.338759
 30
0.0
 10
0.277947
 20
7.370990
 30
0.0
 10
0.248912
 20
7.403224
 30
0.0
 10
0.219874
 20
7.435458
 30
0.0
 10
0.190836
 20
7.467690
 30
0.0
 10
0.161798
 20
7.499924
 30
0.0
 10
0.132763
 20
7.532156
 30
0.0
 10
0.103725
 20
7.564390
 30
0.0
 10
0.074687
 20
7.596621
 30
0.0
  0
ENDSEC
  0
SECTION
  2
OBJECTS
  0
DICTIONARY
  5
C
330
0
100
AcDbDictionary
  3
ACAD_GROUP
350
D
  3
ACAD_MLINESTYLE
350
17
  0
DICTIONARY
  5
D
330
C
100
AcDbDictionary
  0
DICTIONARY
  5
1A
330
C
100
AcDbDictionary
  0
DICTIONARY
  5
17
330
C
100
AcDbDictionary
  3
STANDARD
350
18
  0
DICTIONARY
  5
19
330
C
100
AcDbDictionary
  0
ENDSEC
  0
EOF
